<svg id="Capa_1" data-name="Capa 1" xmlns="http://www.w3.org/2000/svg" viewBox="0 0 213.99 135.41"><title>djangoEcommerce</title><circle cx="37.22" cy="42.62" r="12.18" transform="translate(-12.8 69.05) rotate(-76.72)" style="fill:#009fe3"/><path d="M91.16,34.87A16.61,16.61,0,1,1,74.55,18.26,16.61,16.61,0,0,1,91.16,34.87Z" style="fill:#009fe3"/><path d="M145.33,48.08a21,21,0,1,1-21-21A21,21,0,0,1,145.33,48.08Z" style="fill:#009fe3"/><path d="M193.3,91.69a25.47,25.47,0,1,1-25.47-25.46A25.46,25.46,0,0,1,193.3,91.69Z" style="fill:#009fe3"/><path d="M45.05,71.89l.44.16.42.15c-.09.34.06.53.44.56a1.06,1.06,0,0,1,.72.33l.48.56a.53.53,0,0,1,.1.28c0,.43,0,.85,0,1.27a2.41,2.41,0,0,1-.38,1.28,10.53,10.53,0,0,0-.5,1.15,6.83,6.83,0,0,1-.57,1.15,11.94,11.94,0,0,0-.59,1.11L45.1,81a.53.53,0,0,1-.13.2,3.1,3.1,0,0,0-.48.81,4.74,4.74,0,0,0-.25,1,3.19,3.19,0,0,1-.09.31,3.7,3.7,0,0,1-.17.35l-.2.35a.83.83,0,0,1-.17.24l-.07.06a.14.14,0,0,0-.06.07.5.5,0,0,1-.13.47,3.52,3.52,0,0,0-.31.39,1.34,1.34,0,0,0-.17.27.44.44,0,0,0,0,.32.33.33,0,0,1-.09.27,1.37,1.37,0,0,0-.2.29c-.09.19-.15.36-.21.52a3.63,3.63,0,0,1-.21.53,1,1,0,0,1-.11.21c0,.06-.09.13-.15.19a.58.58,0,0,0-.06.17.41.41,0,0,1-.07.17.16.16,0,0,0,0,.09s0,0,0,.06a.76.76,0,0,0-.19.38l-.09.41a1.1,1.1,0,0,1-.11.32,3.31,3.31,0,0,1-.18.29,1.59,1.59,0,0,0-.12.27,1,1,0,0,1-.11.27,2,2,0,0,1-.11.21,2.35,2.35,0,0,0-.1.22l-.22.57-.25.6a10.51,10.51,0,0,0-.46,1.33,6,6,0,0,1-.51,1.32,3.37,3.37,0,0,0-.19.56,1.47,1.47,0,0,1-.25.54.61.61,0,0,1-.06.5l-.3.42a.37.37,0,0,0-.06.15A5.28,5.28,0,0,1,38,98.26a.34.34,0,0,0,0,.12.33.33,0,0,1,0,.13,6.77,6.77,0,0,1-.13.74c0,.26-.09.5-.13.74a.16.16,0,0,0-.05.1,1.52,1.52,0,0,0-.32.89,4.73,4.73,0,0,1-.12.92,2.15,2.15,0,0,1-.94,1.43,2.21,2.21,0,0,0-.48-.15,1,1,0,0,1-.43-.21,1.88,1.88,0,0,1-.52-.86,3.53,3.53,0,0,1-.19-1.76c0-.39.06-.78.07-1.15a7.75,7.75,0,0,1,.12-1.15c0-.36.12-.71.2-1.07s.19-.71.29-1.07c.19-.7.4-1.38.61-2.06s.45-1.36.69-2q.45-1.31.93-2.58c.32-.85.65-1.71,1-2.57.19-.55.39-1.08.6-1.6l.6-1.57q.07-.19.18-.42a3.79,3.79,0,0,0,.18-.42c.36-.83.72-1.65,1.07-2.47s.69-1.64,1-2.47L42.91,76c.24-.57.49-1.15.73-1.73a.4.4,0,0,0,0-.13l0-.23-.51.37a2.23,2.23,0,0,0-.38.37,5.56,5.56,0,0,1-.62.66,2.32,2.32,0,0,0-.55.75l-.1.1-.11.1a10,10,0,0,0-2,2.4,2.85,2.85,0,0,1-.33.39,1.94,1.94,0,0,0-.32.4,6.77,6.77,0,0,1-.68,1,3.61,3.61,0,0,0-.6,1,2.6,2.6,0,0,1-.39.71c-.18.22-.34.45-.5.69a.32.32,0,0,1-.13.15,1.61,1.61,0,0,1-.31.25.57.57,0,0,0-.21.41s0,.07-.09.1l-.17.11a2.87,2.87,0,0,1,.08.38c0,.12,0,.26.08.43-.19.31-.4.63-.63,1s-.44.69-.65,1-.26.44-.38.67l-.35.7-2,3.7c-.67,1.22-1.33,2.46-2,3.7-.14.27-.28.53-.42.77a3,3,0,0,1-.55.71c-.08.08-.17.15-.24.21l-.22.19a1.14,1.14,0,0,1-.37.18.26.26,0,0,1-.31-.13l-.05,0a1,1,0,0,1-.56-.17.68.68,0,0,1-.28-.35,1.78,1.78,0,0,1-.09-.47c0-.17,0-.34,0-.51a7.39,7.39,0,0,1,.15-1c.07-.31.15-.63.24-.93.19-.65.39-1.28.6-1.91s.4-1.27.6-1.92.41-1.36.61-2,.39-1.36.58-2c.14-.49.28-1,.41-1.49s.26-1,.38-1.49c.05-.18.09-.38.13-.57s.07-.4.1-.63a.33.33,0,0,1-.13.07.27.27,0,0,0-.1.06l-.47.69a6.2,6.2,0,0,0-.44.69c-.3.51-.58,1-.84,1.51s-.53,1-.81,1.52-.72,1.27-1.06,1.86c-.09.16-.18.31-.27.48s-.17.31-.26.47-.24.25-.41.41a.73.73,0,0,1,0,.58,4.14,4.14,0,0,1-.38.59,3.06,3.06,0,0,0-.36.61l-.32.66c-.15.32-.31.64-.47,1a7.75,7.75,0,0,0-.39.94,5.77,5.77,0,0,1-.49,1.18A3.18,3.18,0,0,0,23,96.42a.53.53,0,0,1-.14.32l-.27.29a.59.59,0,0,0-.21.38,1,1,0,0,0,.08.39.7.7,0,0,1,0,.39,1.51,1.51,0,0,1-.24.35l-.33-.14a1.33,1.33,0,0,0-.32-.12,2.11,2.11,0,0,1-.3-.16.91.91,0,0,1-.28-.3,2.75,2.75,0,0,1-.44-1.17,5.48,5.48,0,0,1,0-1.28,13,13,0,0,1,.6-2.91c.31-.95.67-1.89,1.07-2.85.15-.34.3-.68.44-1l.42-1,.36-.71c.12-.24.24-.48.37-.72.21-.42.41-.85.61-1.27s.41-.85.64-1.28.59-1.14.88-1.69.6-1.11.92-1.67.55-1,.83-1.55.55-1,.83-1.54a.28.28,0,0,0,.09-.14l.07-.14a.56.56,0,0,1,.42-.69.85.85,0,0,0,.35-.24.36.36,0,0,1,.43-.06.24.24,0,0,0,.12,0l.14,0a.19.19,0,0,1,.13,0,.2.2,0,0,1,.05.14s0,.06.1.06a.74.74,0,0,1,.62,0l.51.25a3.39,3.39,0,0,0,.39.18,1.1,1.1,0,0,1,.31.2.66.66,0,0,0,.44.23.58.58,0,0,1,.42.23.83.83,0,0,1,.23.61c0,.27-.07.54-.1.81a6.57,6.57,0,0,1-.16.77,4.43,4.43,0,0,1-.14.58c-.06.19-.12.38-.17.57L32.38,82c-.14.5-.29,1-.47,1.49a2.24,2.24,0,0,0-.15.67,2,2,0,0,1-.16.63c-.09.23-.18.44-.27.64a2.5,2.5,0,0,0-.2.64c-.05.19-.09.36-.13.52a1.41,1.41,0,0,1-.21.5.51.51,0,0,0,0,.3.28.28,0,0,0,0,.13.27.27,0,0,1,0,.13l-.25.68-.25.67q-.11.3-.18.6a2.78,2.78,0,0,1-.21.57,4.5,4.5,0,0,0-.23.77,2.14,2.14,0,0,1-.34.74.59.59,0,0,0-.11.25c-.08.26-.16.52-.22.78s-.13.53-.22.8a3.79,3.79,0,0,1-.18.42q-.1.23-.21.42a.62.62,0,0,1,0,.13,1.32,1.32,0,0,1-.07.23l.2-.18.12-.1c.34-.61.69-1.23,1-1.85s.7-1.24,1.06-1.87.87-1.53,1.32-2.31.89-1.54,1.34-2.31c.34-.59.71-1.18,1.08-1.75s.75-1.16,1.13-1.74.74-1.15,1.11-1.71l1.13-1.68A26.84,26.84,0,0,1,39.42,77q.86-1,1.8-2c.48-.52,1-1,1.51-1.49a16.12,16.12,0,0,1,1.69-1.31,2.11,2.11,0,0,1,.33-.18ZM35.77,98.1a1.26,1.26,0,0,0-.31,1.23c0-.21.1-.4.15-.59S35.72,98.34,35.77,98.1Zm-.23-15,.1-.09s0,0,0-.06,0-.09-.1-.13l-.11.13S35.48,83,35.54,83.11Zm.7,13.06a.54.54,0,0,0-.31.4,2,2,0,0,1-.11.44,4.38,4.38,0,0,0-.13.43c0,.15-.07.31-.1.46a.39.39,0,0,0,.34-.15.8.8,0,0,0,0-.23,1,1,0,0,1,0-.23c0-.19.07-.38.11-.56S36.2,96.35,36.24,96.17Zm-.18-.26c.19-.08.29-.15.31-.2a.9.9,0,0,0,0-.38,2.63,2.63,0,0,1-.15.33A2.72,2.72,0,0,0,36.06,95.91Zm.41-.76.23-.45a2.7,2.7,0,0,0,.14-.4.15.15,0,0,0,0-.16.85.85,0,0,1-.08-.17h0a.06.06,0,0,1-.05,0,.74.74,0,0,1-.06.27,2,2,0,0,1-.1.26,2.29,2.29,0,0,0-.08.28A.59.59,0,0,0,36.47,95.15Zm5.87-20.4a.82.82,0,0,0-.54.14,2.19,2.19,0,0,0-.38.32c-.12.15-.24.3-.37.44a1.46,1.46,0,0,0-.28.5.68.68,0,0,1-.18.26l-.26.23a.2.2,0,0,1-.17,0l-.17,0s-.07,0-.1.1A2.59,2.59,0,0,1,40,77c-.33.46-.63.85-.89,1.17a1.61,1.61,0,0,1-.22.23l-.27.23a.61.61,0,0,1,0,.24c0,.1-.1.19-.25.27a1.48,1.48,0,0,1,0-.36,3.92,3.92,0,0,0-.32.42c-.08.13,0,.29.17.48a.4.4,0,0,0-.26,0,.35.35,0,0,0-.13.14l-.11.18a.21.21,0,0,1-.16.11.55.55,0,0,0-.23.26,2.48,2.48,0,0,1-.23.36c0,.15-.07.31-.11.47s-.08.34-.13.55c.14-.19.25-.36.34-.5s.17-.29.26-.42l.5-.75a7,7,0,0,1,.52-.73c.22-.31.45-.61.69-.91l.71-.88c.35-.45.72-.91,1.1-1.36l1.14-1.36.08-.07s.05,0,.08-.06l.29-.27a3.63,3.63,0,0,0,.28-.27.18.18,0,0,1-.05-.07l-.31.14-.29.14c0,.07,0,.13.05.18ZM37.86,91.22l-.19.09c-.07,0-.1,0-.1.09-.11.25-.2.51-.29.76s-.17.52-.26.79a1.2,1.2,0,0,0-.06.32,1.55,1.55,0,0,1-.07.35.61.61,0,0,0,.34-.23,2,2,0,0,0,.13-.31l.1-.3a2.41,2.41,0,0,0,.13-.41c0-.14.07-.28.11-.41s0-.26.06-.38a3.91,3.91,0,0,0,.07-.39,1.29,1.29,0,0,0,0-.19c0-.06,0-.14,0-.24a.61.61,0,0,0-.13.23A.66.66,0,0,0,37.86,91.22Zm0-.59a.44.44,0,0,0,.29-.19.47.47,0,0,0,0-.32Zm.42-1.07.07,0h.08c.12,0,.17-.13.13-.23a1.12,1.12,0,0,1-.05-.31,1.51,1.51,0,0,1-.12.26A2.72,2.72,0,0,0,38.25,89.56Zm5.36-16a.81.81,0,0,0-.35.1.85.85,0,0,0-.17.3l.26-.19A1.71,1.71,0,0,0,43.61,73.53Z" style="fill:#66657c"/><path d="M59.12,86.86a.35.35,0,0,1,0,.3,3.79,3.79,0,0,0-.26.83c0,.29-.11.57-.18.86v0a2.64,2.64,0,0,0-.25.53q-.12.31-.24.66c-.07.23-.15.45-.22.68s-.14.4-.2.56a.18.18,0,0,1-.12.07.53.53,0,0,0-.17.08v.41a.4.4,0,0,1-.18.43.26.26,0,0,0-.17.17q0,.11-.09.24a2.15,2.15,0,0,1-.13.44,2,2,0,0,1-.28.46,2.18,2.18,0,0,1-.36.38,1.3,1.3,0,0,1-.38.25v0l0,0a1,1,0,0,1,.26.34.45.45,0,0,1-.18.45,2.66,2.66,0,0,0-.36.41l-.42.59q-.21.3-.39.6a3.46,3.46,0,0,0-.26.47s0,0,0,0a.05.05,0,0,0,0,0v0c.12.15.14.27,0,.35a2,2,0,0,0-.27.24c-.14.14-.28.27-.41.42s-.24.28-.35.42a.16.16,0,0,0-.05.11.17.17,0,0,1,0,.12c0,.1-.07.19-.11.28a2.1,2.1,0,0,1-.15.22.5.5,0,0,0-.13.21c-.16.24-.33.49-.52.74a.77.77,0,0,1-.12.13,1.27,1.27,0,0,0-.12.1l-.19.18-.2.18.08.07-.31.08a.58.58,0,0,0,0,.14.32.32,0,0,1,0,.14l-.39.22-.44.24.39.13-.78.69c-.24.22-.49.43-.73.63a.6.6,0,0,0-.07.18.2.2,0,0,1-.06.13l-.39.33-.39.33a1.57,1.57,0,0,0-.15.19l-.14.25a.28.28,0,0,1-.09.07l-.09.08a.3.3,0,0,1-.14.06A.24.24,0,0,0,48,105l-.34.25a.3.3,0,0,0-.05.38.89.89,0,0,0-.35,0s-.08.12-.12.3a1.47,1.47,0,0,1-.53.36.81.81,0,0,0-.43.44.09.09,0,0,1,0,0c-.36.23-.72.48-1.07.72s-.7.49-1.06.73L44,108l-.46.22a2.07,2.07,0,0,1-.43.16l-1.07.3a5.32,5.32,0,0,1-1.06.16,2.59,2.59,0,0,1-.92-.11,8,8,0,0,1-.88-.35,3.24,3.24,0,0,1-.82-.54,4.78,4.78,0,0,1-.64-.71l-.13-.16c0-.06,0-.14,0-.22a1.79,1.79,0,0,0-.13-.31l.23.13a.43.43,0,0,1,.16.13,1.3,1.3,0,0,0,.85.59,2.92,2.92,0,0,0,1.05-.05,6.1,6.1,0,0,0,1.36-.57c.41-.23.83-.48,1.25-.74a12.15,12.15,0,0,0,1.08-.75c.34-.26.67-.54,1-.83.68-.59,1.33-1.2,2-1.83s1.21-1.28,1.77-1.94c.29-.31.58-.61.85-.92s.53-.63.79-1,.47-.65.68-1,.43-.66.67-1c.09-.12.2-.29.34-.5l.43-.65.43-.64.34-.48a2.58,2.58,0,0,0,.18-.32l.19-.35c.12-.23.25-.5.4-.8s.3-.6.44-.91l.45-.9c.14-.3.27-.57.37-.83s.16-.38.25-.62.19-.51.29-.78.19-.54.27-.79.16-.48.21-.66a.29.29,0,0,0-.05-.29,2.35,2.35,0,0,1-.5.62,7,7,0,0,1-.6.48,1.08,1.08,0,0,0-.32.32,1.84,1.84,0,0,1-.27.34l-.2.18-.22.21c0,.08-.11.18-.16.28a1.08,1.08,0,0,1-.21.28l-.88.9-.89.91-.57.64q-.28.3-.57.63a3.71,3.71,0,0,0-.33.41l-.3.41-.43.56c-.15.19-.31.37-.48.56l-.55.69c-.17.22-.36.44-.55.66s-.44.46-.66.68-.44.44-.66.67a2.84,2.84,0,0,0-.24.26l-.23.25c-.26.26-.55.51-.86.77a.71.71,0,0,1-.37.15,2.61,2.61,0,0,1-.6.08s-.13,0-.23-.16l-.13-.09a.28.28,0,0,0-.13,0l-.37-.12a.69.69,0,0,1-.28-.21,3,3,0,0,1-.71-1.89,8.68,8.68,0,0,1,0-1,3.71,3.71,0,0,1,.21-1,3,3,0,0,0,.07-.52,1.4,1.4,0,0,1,.11-.53c.12-.42.26-.84.41-1.25s.29-.81.43-1.22a9.91,9.91,0,0,1,.39-1c.08-.24.17-.46.24-.67a6.06,6.06,0,0,1,.28-.65l1.17-2.53.33-.73c.09-.21.19-.42.28-.62s.19-.41.28-.62a6.47,6.47,0,0,1,.34-.73l.14-.28s.05-.09.06-.12A.72.72,0,0,0,47,83s.08-.15.17-.28c.17-.34.35-.68.55-1l.57-1a.43.43,0,0,1,.27-.27.82.82,0,0,1,.43-.06,2.44,2.44,0,0,1,1.08.33c.32.19.63.39.93.61a.88.88,0,0,1,.23.38l.12.58a1.37,1.37,0,0,1,0,.57,2.08,2.08,0,0,1-.6.93,5.38,5.38,0,0,0-.86,1.16.49.49,0,0,1-.14.18,1,1,0,0,0-.17.18.74.74,0,0,0-.18.2l-.14.25c-.05.07-.11.17-.2.29.09.08,0,.2-.18.35a2,2,0,0,0-.3.22,1.19,1.19,0,0,0-.15.18,1.65,1.65,0,0,0-.09.22,1.85,1.85,0,0,1-.14.33.57.57,0,0,1-.12.18.78.78,0,0,0-.11.18.53.53,0,0,1-.42.58,1.14,1.14,0,0,1,0,.37,1,1,0,0,1-.18.37,1.83,1.83,0,0,0-.29.51c-.07.19-.15.38-.23.56l-.17.26-.22.28c.08.22,0,.41-.37.58a.57.57,0,0,0,.09.08l.07,0c-.06.12-.1.23-.15.33l-.11.28a.76.76,0,0,1-.21,0,.21.21,0,0,0-.16,0,1.67,1.67,0,0,0-.08.2c0,.07,0,.12.16.16s.1.07.1.12-.07.27-.11.4-.09.28-.15.47a.56.56,0,0,0-.05-.18l0-.1c-.14,0-.22.12-.24.22a.74.74,0,0,0,0,.29.48.48,0,0,1,.07.32.53.53,0,0,1-.28.24.88.88,0,0,1,.08.33c0,.1-.1.19-.29.26a.43.43,0,0,0,0,.1.15.15,0,0,0,0,.13.35.35,0,0,1,0,.28,1.17,1.17,0,0,1-.16.25.89.89,0,0,0-.08.17.75.75,0,0,1-.05.16l-.09.55-.09.55a1.4,1.4,0,0,1-.12.18l-.17.2a.54.54,0,0,1,.12.27.36.36,0,0,1-.17.29s0,.05,0,.09A.49.49,0,0,1,44,98a.19.19,0,0,1,.1,0l.11,0c.19-.19.39-.37.6-.55s.41-.36.6-.55c.38-.39.73-.79,1.07-1.2s.79-.89,1.17-1.34L48.82,93l.47-.47a4,4,0,0,0,.45-.47l.45-.51.46-.51c.38-.42.79-.85,1.22-1.27l.81-.86c.26-.28.53-.55.81-.83s.45-.42.66-.61a5,5,0,0,0,.61-.61c.25-.24.47-.48.68-.71s.44-.48.68-.72a2,2,0,0,0,.44-.81c0-.19.12-.27.25-.23a.69.69,0,0,0,.35,0,.18.18,0,0,1,.17,0l.17.12a2.15,2.15,0,0,1,.47.14.43.43,0,0,1,.23.42s0,.07.13.1l.32.36a4.39,4.39,0,0,1,.28.36s.06,0,.06.07l.09.42A3.42,3.42,0,0,1,59.12,86.86ZM41.24,107.61a2.78,2.78,0,0,1,.46-.21,1.53,1.53,0,0,0,.45-.25l.54-.39a.82.82,0,0,1,.66-.12,1.26,1.26,0,0,1-.21-.18l.16-.08.13-.09a.28.28,0,0,0,.08.2.34.34,0,0,0,.13-.25s0-.08,0-.13,0-.09.08-.1a1,1,0,0,0,.47-.36.63.63,0,0,1,.55-.26.3.3,0,0,0,.28-.13,4.24,4.24,0,0,1,.31-.3s0,0,0,0l0,0-.19.15a2,2,0,0,1-.2.16.21.21,0,0,0-.08-.06,3.61,3.61,0,0,0,.31-.33c.23-.18.44-.37.65-.55a3.68,3.68,0,0,0,.58-.6,5.16,5.16,0,0,1,.39-.41.68.68,0,0,1,.49-.22.53.53,0,0,0,.17-.12.94.94,0,0,0,.14-.16s0,0,0-.09a.34.34,0,0,1-.06-.12.09.09,0,0,1,0-.1s0-.08,0-.15l.11.15a.25.25,0,0,0,.1.08s.09,0,.18,0a.14.14,0,0,0,0-.18s-.12-.08-.27-.1-.24,0-.27,0l-1.08,1.1-1.09,1.07c-.13.14-.27.27-.41.4s-.28.25-.42.39-.45.36-.68.52l-.67.5-.83.64a2.74,2.74,0,0,1-.92.46s-.06,0-.08.1a.35.35,0,0,1-.08.13Zm1.67,0a.16.16,0,0,0,0-.14.51.51,0,0,1,0-.21l-.3.2-.22.15a.2.2,0,0,1,0,.08.45.45,0,0,0,0,.08.9.9,0,0,1,.21-.08A.9.9,0,0,0,42.91,107.66Zm5.34-4.84a.59.59,0,0,1,.16-.2.33.33,0,0,1-.21-.13c-.14.13-.27.26-.38.38a4.43,4.43,0,0,1-.38.36,1.71,1.71,0,0,0,.11.14.64.64,0,0,1,.08.14.15.15,0,0,1-.06.07.3.3,0,0,0-.1-.07l-.13-.08a1,1,0,0,1-.39.36.39.39,0,0,0-.26.38c-.18.14-.34.27-.48.4l-.46.39.29.21s0,0,0,0l0,0-.23-.15a2.8,2.8,0,0,1-.33.24l-.3.24a4.79,4.79,0,0,0-.46.42c-.14.15-.3.3-.47.45h0a2,2,0,0,0-.52.29l-.47.4a.3.3,0,0,0-.07.1.36.36,0,0,1-.06.13l.23,0,.41-.21a1.93,1.93,0,0,1,.4-.15.72.72,0,0,0,.29-.13c.05,0,.05-.14,0-.28h.29a.59.59,0,0,0,0-.14.14.14,0,0,1,0-.11.06.06,0,0,0,0,0s0,0,0,0a3.55,3.55,0,0,1,.44-.21,1.67,1.67,0,0,0,.4-.22,8.4,8.4,0,0,0,1.06-1,1.21,1.21,0,0,1,.2-.19.22.22,0,0,0,.06-.27.17.17,0,0,1,0-.13,1,1,0,0,1,.09-.17l.12.08a.38.38,0,0,0,.09.09.1.1,0,0,0,.06,0l.07,0,.34-.38.33-.38a.13.13,0,0,0,0-.12.59.59,0,0,1,0-.14.55.55,0,0,0,.19-.18A.82.82,0,0,0,48.25,102.82Zm-4-11.14c.06-.12.11-.25.16-.38s0,0,0-.07,0,0,0,0-.14,0-.16.08-.11.26-.17.39l-.19.42.23,0C44.15,91.92,44.21,91.8,44.26,91.68Zm.21.41a1.05,1.05,0,0,0,.13-.26c0-.08.07-.17.11-.25s.1-.21.14-.32a3.09,3.09,0,0,1,.14-.32h.11a1.19,1.19,0,0,0-.13-.23,2.11,2.11,0,0,0-.47.75A.74.74,0,0,0,44.47,92.09Zm3.23,9.79a.26.26,0,0,0-.05.18.05.05,0,0,1,0,0l.34-.3.31-.29c0-.12-.08-.16-.14-.13a.49.49,0,0,0-.15.13,1.45,1.45,0,0,0-.18.16Zm.86-.85c.09.14.09.24,0,.31l-.25.21a.14.14,0,0,0-.07.11.81.81,0,0,1,0,.11l.06,0,.07,0a2.77,2.77,0,0,1,.22-.29c.07-.1.16-.19.24-.29v-.11c-.12,0-.15-.1-.09-.16l.12-.14a2.25,2.25,0,0,1,.24-.3l.25-.29a.12.12,0,0,0,.06-.09.51.51,0,0,1,0-.09.59.59,0,0,0-.49.38,1,1,0,0,1-.37.51Zm1,.34.26-.22a3.72,3.72,0,0,1,.33-.27l-.14,0a.13.13,0,0,0-.12,0,1.2,1.2,0,0,0-.2.17l-.06,0a.35.35,0,0,1,0-.12.45.45,0,0,0,0-.13l0,0,0,0-.71.84c-.22.27-.45.55-.67.84a.27.27,0,0,0,0,.13.38.38,0,0,0,.09.13c.05-.09.11-.17.17-.26s.12-.17.19-.25l0,0-.07.3a.05.05,0,0,0,0,0l.05,0c.1-.13.21-.26.31-.37l.34-.37a2.42,2.42,0,0,1-.28-.25l.23,0,.21,0A.11.11,0,0,1,49.61,101.37Zm.28-2.07-.23.24-.24.25a.35.35,0,0,1,.13.1,2.84,2.84,0,0,0,.24-.26l.23-.25-.06,0Zm2-.74a.48.48,0,0,0,.06-.18,1.42,1.42,0,0,1,0-.2h-.08c-.08.12-.16.23-.22.34a.82.82,0,0,1-.35.3,4.22,4.22,0,0,0,.26-.53.18.18,0,0,0,0-.16c-.2.25-.39.51-.59.78l-.58.77-.3.39a.53.53,0,0,0-.12.43.36.36,0,0,0,0,.1l.06.1a.94.94,0,0,1,.1-.1l.08-.1.09-.31a2.29,2.29,0,0,1,.09-.28h.08a.71.71,0,0,0,0,.2,1.15,1.15,0,0,1,0,.21.66.66,0,0,0,.26-.23c.2-.25.39-.51.57-.76Zm3.62-11.65a2.6,2.6,0,0,0,.35-.42,3.24,3.24,0,0,1,.35-.42.16.16,0,0,1-.1,0,1.68,1.68,0,0,1-.21.18l-.21.17-.78.85-.48.46-.49.45c-.22.23-.45.45-.67.67l-.64.66a1.78,1.78,0,0,1-.26.22,2.39,2.39,0,0,0-.26.21,5.73,5.73,0,0,0-.6.74l-.16.21c0,.07-.11.12-.16.18s-.27.27-.41.42l-.4.42a1.49,1.49,0,0,0-.13.25.35.35,0,0,0,.1.08l.25-.27.22-.27.51-.44a2.76,2.76,0,0,0,.44-.47,7,7,0,0,1,.73-.81c.26-.24.52-.5.76-.75a4.64,4.64,0,0,1,.42-.37,4.64,4.64,0,0,0,.42-.37,1.14,1.14,0,0,0,.22-.22l.2-.24a.06.06,0,0,0,0-.07.18.18,0,0,1,.05-.11,6.25,6.25,0,0,1,.45-.44ZM50.8,99.43,51,99.2l.15-.2C51.28,99.18,51.17,99.33,50.8,99.43Z" style="fill:#66657c"/><path d="M91.14,74.24a1.65,1.65,0,0,1,.06.69q0,.33-.09.66s0,.06,0,.06,0,0,0,.07c0,.24-.06.46-.08.67s0,.43-.08.65a3.47,3.47,0,0,1-.13.46c0,.16-.1.31-.16.46a1.24,1.24,0,0,1-.13.43.65.65,0,0,1-.36.54.64.64,0,0,0-.34.36.78.78,0,0,1-.17.34,1,1,0,0,1-.25.22,1.22,1.22,0,0,0-.36.32,3.92,3.92,0,0,1-.34.37.87.87,0,0,1-.6.33l-.21.29c-.07.1-.17.11-.31,0-.1.12-.21.16-.31.11a.5.5,0,0,0-.32,0,1.32,1.32,0,0,1,.27-.57,4.68,4.68,0,0,0,.36-.52h-.34a1.68,1.68,0,0,0,.18-.21.71.71,0,0,1,.16-.15.53.53,0,0,0,.2-.15l.14-.21a3.17,3.17,0,0,1,.21-.27.61.61,0,0,0,.15-.26l.39-.6c.13-.2.25-.4.37-.6l.09-.27.09-.27s0-.07,0-.12a.34.34,0,0,1,0-.16,2.23,2.23,0,0,0,0-.23.64.64,0,0,1,.06-.18c.07-.37,0-.51-.26-.43l-.32.12-.3.11-.46.18a1.16,1.16,0,0,1-.53.08s-.07,0-.09,0a.22.22,0,0,0-.07.09l-.22.16-.22.12a1.73,1.73,0,0,0-.33.13,2.14,2.14,0,0,0-.3.17l-.3.2a1.21,1.21,0,0,0-.24.21.51.51,0,0,1-.26.18L85,78a1.55,1.55,0,0,0-.67.46.29.29,0,0,1-.17.14.27.27,0,0,0-.17.14.7.7,0,0,1-.36.19.44.44,0,0,0-.3.27s0,0-.07,0l-.26.13-.26.15v.1l-.11.16a1.51,1.51,0,0,1-.26.12l-.26.13c-.24.15-.5.31-.78.46l0,0A1,1,0,0,1,81,81a4.2,4.2,0,0,0-.49.37,1.77,1.77,0,0,0-.36.41,1.42,1.42,0,0,1-.34.35l-.31.31c-.11.08-.22.18-.34.28a.75.75,0,0,0-.11.13l-.1.17a.69.69,0,0,1-.13.21,3.1,3.1,0,0,1-.24.28.59.59,0,0,0-.28.41l-.2.52c-.06.16-.11.32-.17.47s-.07.42.11.54l.19.09a.56.56,0,0,1,.17.09.47.47,0,0,0,.09-.12l.09-.14a.59.59,0,0,0,.43.29,1.14,1.14,0,0,0,.49-.09.16.16,0,0,1,.1,0l.1,0,.53-.21a5.81,5.81,0,0,0,.54-.23l.47-.14.5-.11a.13.13,0,0,0,.1,0,1.11,1.11,0,0,1,.41-.2.56.56,0,0,1,.45.15v-.25a1.89,1.89,0,0,1,.34-.09l.39-.09a.31.31,0,0,1,.09.11l.09.14.26-.1c.16-.06.16-.16,0-.28l.17-.08s.09,0,.15.13.08.11.21.08l.46-.1a4,4,0,0,1,.5-.08,4.09,4.09,0,0,1,.7,0h.41a.73.73,0,0,0,.4-.13.08.08,0,0,1,.07,0H87a2.44,2.44,0,0,0,.55.06,3.64,3.64,0,0,1,.57,0,.76.76,0,0,1,.21,0l.23,0a.45.45,0,0,0,.23,0c.06,0,.1-.07.14-.15s.24-.2.36,0l.38.42a3.22,3.22,0,0,1,.33.45l.35.57a2.6,2.6,0,0,1,.27.63c0,.2.11.41.17.62s.13.43.2.65a.49.49,0,0,1,.05.18.37.37,0,0,0-.09.41,1,1,0,0,1,.09.41c0,.1,0,.2,0,.32s0,.2,0,.29,0,.35,0,.53,0,.38,0,.57a3.27,3.27,0,0,1-.42,1.68,1,1,0,0,0-.14.33,2.53,2.53,0,0,1-.12.36l-.29.49a.76.76,0,0,1-.36.37.53.53,0,0,0-.13.13,3,3,0,0,0-.18.36.81.81,0,0,1-.21.3l-.27.25a2.09,2.09,0,0,0-.28.24,1.49,1.49,0,0,0-.23.27l-.21.26-.6.59a1,1,0,0,0-.13.26.57.57,0,0,0-.39.17,1.92,1.92,0,0,1-.83.62c-.06,0-.08,0-.08,0a1,1,0,0,1-.45.39,3.65,3.65,0,0,0-.49.24s-.08.07-.08,0a.44.44,0,0,1-.39.28.87.87,0,0,0-.44.13,2,2,0,0,0-.11-.25,1.38,1.38,0,0,1-.39.2,2.26,2.26,0,0,1,.26.23,3.84,3.84,0,0,1-.3.28,1,1,0,0,1-.3.21l-.13,0c-.08-.05-.17,0-.26.1l-.23.19a.35.35,0,0,1-.29.07.08.08,0,0,0-.1,0l-.11.09-.44.27a1.17,1.17,0,0,1-.52.16.15.15,0,0,0-.12.07l-.12.11a1.29,1.29,0,0,1-.23.17.74.74,0,0,1-.24,0,.56.56,0,0,1-.46.33,1.57,1.57,0,0,0-.47.13,2.1,2.1,0,0,1-.52.15.79.79,0,0,1-.5,0,.39.39,0,0,0-.38-.06,2.14,2.14,0,0,0-.35.16.43.43,0,0,1-.27.1h-.28a.82.82,0,0,0-.44,0,1,1,0,0,1-.39,0l-.39,0c-.14,0-.28,0-.43,0a2.93,2.93,0,0,1-.48-.07,4,4,0,0,1-.64-.13,3.16,3.16,0,0,1-.59-.2l-.26-.1a.81.81,0,0,1-.26-.18.33.33,0,0,0-.21-.19,1,1,0,0,1-.28-.17,6.61,6.61,0,0,0-.55-.37,2.86,2.86,0,0,1-.52-.37,1,1,0,0,1-.34-.33,2.94,2.94,0,0,0-.34-.41.35.35,0,0,1-.06-.17.58.58,0,0,0-.07-.21L71,97.38a.55.55,0,0,1-.14-.25,4.49,4.49,0,0,1-.29-.53c-.09-.19-.18-.37-.29-.56a.49.49,0,0,1,0-.14.84.84,0,0,0,0-.14,2.24,2.24,0,0,1-.33-.78c-.06-.28-.12-.57-.17-.85a4.54,4.54,0,0,1-.12-.53l-.06-.54a9.41,9.41,0,0,1,0-1.19,6.94,6.94,0,0,1,.16-1.19,1.49,1.49,0,0,1,.14-.37A1.94,1.94,0,0,0,70,90a.86.86,0,0,0,.07-.21,1.19,1.19,0,0,1,.08-.2.63.63,0,0,1,.37-.36c0,.08-.07.18-.11.28l-.1.31a.5.5,0,0,1,.25.48l-.09.56a1.2,1.2,0,0,0,0,.24,2,2,0,0,0,0,.25.57.57,0,0,1,0,.26,2.83,2.83,0,0,0,0,.3c0,.23,0,.46,0,.67a2.37,2.37,0,0,0,0,.65,2.1,2.1,0,0,0,.09.5c0,.16.09.31.14.45a.28.28,0,0,0,.11.23l.56.56a1.77,1.77,0,0,0,.61.41,3,3,0,0,1,.47.24,3.71,3.71,0,0,0,.49.24,1.32,1.32,0,0,0,.39.15l.42.1c.19,0,.37.06.55.08s.35,0,.54.08l.19,0,.18,0,.52.11a1.09,1.09,0,0,0,.44,0,1.57,1.57,0,0,1,.65,0,1,1,0,0,0,.58,0,1.63,1.63,0,0,1,.31,0h.31a1.93,1.93,0,0,0,.51-.09,2.4,2.4,0,0,1,.48-.1,4,4,0,0,1,.48-.07.79.79,0,0,0,.46-.22s0-.08.08-.08a.43.43,0,0,0,.38-.06,1.24,1.24,0,0,1,.37-.17,1.66,1.66,0,0,0,.37-.14l.36-.19A4.11,4.11,0,0,0,81.9,95l.51-.27a1.36,1.36,0,0,1,.25-.07c.08,0,.13-.1.17-.23a.41.41,0,0,0,.17,0,.21.21,0,0,0,.11-.08l.11-.12.1-.07a2.35,2.35,0,0,0,.5-.31c.15-.12.31-.22.45-.32s.29-.19.43-.29l.45-.36.44-.36.47-.38a.32.32,0,0,1,.09-.08l.09-.07.39-.35a2.41,2.41,0,0,0,.34-.37l.26-.25c.09-.09.17-.19.26-.29s.37-.48.55-.74l.55-.81a3.61,3.61,0,0,0,.22-.44,3.21,3.21,0,0,1,.22-.46.07.07,0,0,0,0-.06.09.09,0,0,1,0-.07,2.12,2.12,0,0,0,.27-.75,7,7,0,0,0,.1-.83,1,1,0,0,0-.24-.74c-.09-.12-.17-.24-.25-.37a1.29,1.29,0,0,1-.14-.48c0-.13-.06-.22-.12-.25a.5.5,0,0,0-.27,0,.59.59,0,0,1-.17,0L88,84.54a1.54,1.54,0,0,1-1.07.08.23.23,0,0,0-.23,0l-.29.1-.17,0-.17,0a.62.62,0,0,1-.19,0h-.17c-.09,0-.14,0-.16,0l-.16.06a.24.24,0,0,1-.13,0A.39.39,0,0,1,85,85c-.08,0-.17,0-.26.18a.22.22,0,0,1-.1,0,1.14,1.14,0,0,0-.45,0,2.05,2.05,0,0,0-.41.18l-.22.1a.53.53,0,0,1-.25,0,.86.86,0,0,0-.42.13.52.52,0,0,1-.41.08,0,0,0,0,0-.06,0,.08.08,0,0,0,0,0,1.65,1.65,0,0,1-.29.18A.53.53,0,0,1,82,86a.28.28,0,0,0-.2.14l-.05,0a.79.79,0,0,0-.32.06.58.58,0,0,0-.23.27c0,.1,0,.12-.08.07a.25.25,0,0,0-.25,0,1,1,0,0,1-.22.17l-.14,0h-.14l-.24.06-.21.09-.27.1a1.69,1.69,0,0,1-.27.1.27.27,0,0,1-.39-.07,1,1,0,0,0-.42-.29,1,1,0,0,0-.47,0,.23.23,0,0,1-.26-.08,2,2,0,0,1-.63-1c0-.1-.11-.2-.17-.3a1,1,0,0,1-.11-.41,2.15,2.15,0,0,0-.12-.5,1.1,1.1,0,0,1,0-.55,1.48,1.48,0,0,1-.12-.71c0-.24,0-.48.07-.74s.08-.55.14-.84a1.64,1.64,0,0,1,.35-.74v-.08a.6.6,0,0,1,.13-.38,1.61,1.61,0,0,0,.24-.36,1.06,1.06,0,0,1,.15-.34l.21-.27.46-.6.43-.57.08-.09a.1.1,0,0,1,.08-.06l.26-.11c.08,0,.12-.14.1-.33,0,0,0-.07.1-.1.33-.29.67-.57,1-.85s.68-.58,1-.88h0a1,1,0,0,0,.38-.26,1.93,1.93,0,0,1,.35-.3.91.91,0,0,0,.22-.13.86.86,0,0,1,.2-.13,1.92,1.92,0,0,1,.31-.23c.12-.07.24-.13.34-.2l.27-.23a.8.8,0,0,1,.3-.18.59.59,0,0,0,.34-.2.62.62,0,0,1,.32-.21,1,1,0,0,0,.32-.18l.35-.23.35-.2.33-.18a6.06,6.06,0,0,0,.85-.41,2.38,2.38,0,0,1,.84-.28A1.9,1.9,0,0,0,88,72.2l.43-.2a1.86,1.86,0,0,1,.78-.19,2.77,2.77,0,0,1,.76.08.42.42,0,0,1,.19.09l.15.14a4,4,0,0,1,.35.49l.27.53a2,2,0,0,1,.18.85.22.22,0,0,1,0,.12A.18.18,0,0,0,91.14,74.24ZM71.08,95.55c.07-.06.1-.09.1-.07s0-.11-.05-.11,0,0-.08,0A.4.4,0,0,0,71.08,95.55Zm.31.11s0,0,0,.1a.91.91,0,0,1,.48.24,1.44,1.44,0,0,0,.49.29.28.28,0,0,1,.13,0,1,1,0,0,0-.45-.43l-.44-.23h0l0,0h0A.1.1,0,0,0,71.39,95.66Zm.13.56a.11.11,0,0,0,.08,0,.1.1,0,0,1,0-.08v0a.16.16,0,0,0-.1,0S71.48,96.22,71.52,96.22Zm2.19,1.17s0,0,0,0l0,0a.09.09,0,0,1,0,0l.33.08.27.07a.37.37,0,0,0,.31,0,.32.32,0,0,1,.34.12s0,0,0,0,0,0,0,0a.33.33,0,0,1,.38-.09.73.73,0,0,0,.35.09,2.35,2.35,0,0,1,.65,0l.71.05,0,0a.34.34,0,0,1,.39-.14.67.67,0,0,0,.42,0l.19,0a.34.34,0,0,0,.17,0l.34-.1a2.24,2.24,0,0,1,.39-.08l.2,0a.32.32,0,0,0,.19-.07.62.62,0,0,1,.29-.17c.1,0,.2,0,.29.19a2,2,0,0,1,.48-.57,1.1,1.1,0,0,1,.61-.22s0-.13.08-.23a.69.69,0,0,1,.13.23l.19-.16a.34.34,0,0,0,.07-.3,1,1,0,0,0-.47.13l-.44.23a.11.11,0,0,0-.11.08c0,.12-.11.18-.19.18a.59.59,0,0,0-.25,0c-.23,0-.44.11-.65.17l-.65.21a2.11,2.11,0,0,1-.3.07l-.28.06-.6.11a1.83,1.83,0,0,1-.57,0s-.06,0-.06,0H77l-.13,0a.41.41,0,0,1-.16,0l-.31,0h-.31a2.22,2.22,0,0,0-.37,0h-.39c0-.13.1-.19.2-.19a.3.3,0,0,0,.25-.09q0-.12-.09-.12h-.15a1.65,1.65,0,0,1-.32.06.61.61,0,0,1-.33-.06.16.16,0,0,0-.16,0,.42.42,0,0,0-.1.17A.42.42,0,0,1,74,97c-.1-.07-.18-.09-.23-.05s-.28,0-.37-.21a.72.72,0,0,0,0-.28,1.51,1.51,0,0,0-.73-.2h-.13a.14.14,0,0,0-.1.06c-.07.09-.13.13-.2.13a.49.49,0,0,1-.19,0,.84.84,0,0,0-.24-.06.4.4,0,0,0-.23,0l.42.4a.42.42,0,0,1,.49.18.26.26,0,0,0,.18.15l.49.12Zm-.5.46c.09.18.17.24.25.15a.36.36,0,0,1,.25-.13,1.06,1.06,0,0,0-.25-.11C73.38,97.73,73.3,97.76,73.21,97.85Zm.45-1.23s0,.06,0,.06l.1,0a.15.15,0,0,0,.08,0,.43.43,0,0,0,0-.11ZM74,98.1c.09.14.18.19.27.16a.34.34,0,0,1,.28,0l-.25-.17A.26.26,0,0,0,74,98.1Zm0-1.4c.09.12.15.18.2.18s.1,0,.19-.15a.36.36,0,0,0-.18-.07.78.78,0,0,1-.21,0Zm10.63-1.35a1.69,1.69,0,0,1,.13-.27.42.42,0,0,1,.21-.16l0-.08-.3.1a1.69,1.69,0,0,0-.27.13s0,0,0,.08a.74.74,0,0,0,0,.12c0,.17-.08.23-.18.16s-.06,0-.06-.06l0,0a.61.61,0,0,0-.16.12.31.31,0,0,1-.16.1,2.18,2.18,0,0,0-.43.22l-.4.27-.55.33a6.32,6.32,0,0,0-.54.36,3.89,3.89,0,0,1-.66.29,3,3,0,0,0-.65.32.21.21,0,0,1-.15,0l-.21.08a.86.86,0,0,0-.21.07l-.44.18-.47.2-.07,0-.06,0-.41,0a2,2,0,0,0-.4.07l-.57.09-.55.06c-.35,0-.69,0-1,0a10,10,0,0,1-1.06-.08.21.21,0,0,0-.15,0,.89.89,0,0,0,.19.25.78.78,0,0,0,.28,0h.47a.46.46,0,0,1,.45-.08,1.1,1.1,0,0,0,.51,0,.58.58,0,0,1,.29,0,1.57,1.57,0,0,0,.28,0l0,0a.22.22,0,0,0,0,.1,1.37,1.37,0,0,1,0,.16.13.13,0,0,1,.13-.07l.15,0h.15s.09,0,.14-.1a1.21,1.21,0,0,0-.23-.1,1.06,1.06,0,0,1,.66-.14c.22,0,.43,0,.64.09a.69.69,0,0,0,.13-.21.23.23,0,0,1,.13.17c0,.07.08.1.18.06a1.69,1.69,0,0,0,0-.25.69.69,0,0,1,.18,0l.26.12c.09,0,.15,0,.18,0s.06-.09.08-.22v-.08a1,1,0,0,1,.39-.18.26.26,0,0,1,.17-.05.74.74,0,0,0,.22,0,.53.53,0,0,0,.16-.13.39.39,0,0,1,.15-.13.45.45,0,0,0,.63-.28l.61-.21a1.46,1.46,0,0,0,.54-.48s0,.06.1.08.1,0,.13-.15,0,0,0,0l.08,0,.33-.18.35-.21a1.41,1.41,0,0,0,.18-.14l.18-.16.26-.17A.61.61,0,0,0,84.65,95.35Zm-8.13,1.4a.17.17,0,0,0-.17,0,.38.38,0,0,1-.17.08.09.09,0,0,1,0,.07,1.73,1.73,0,0,1,.31-.05Zm2.16-.33s0,0,0,0,0,0,0,0a1.45,1.45,0,0,0,.1.18c.05-.05.07-.08.05-.08Zm.06,2.3c.08.06.14.09.15.08s0-.06.06-.16ZM80,96.11C80,96,79.9,96,79.88,96a1.17,1.17,0,0,0-.13.19C79.91,96.26,80,96.23,80,96.11ZM80,78.32s-.06.05-.08.05,0,0,0,0v0s0,0,0,0,.08,0,.08,0Zm.73,18.41a.84.84,0,0,0-.06-.18.28.28,0,0,1-.09.07l-.06.08a1.37,1.37,0,0,0,0,.18A.78.78,0,0,0,80.72,96.73Zm.15,1.47a.22.22,0,0,0,.11,0l.13-.08L81,97.92c-.09.06-.13.09-.13.11S80.86,98.2,80.87,98.2Zm.73-21.92c.06.14.1.21.13.22a.38.38,0,0,0,.21-.12A1.28,1.28,0,0,1,81.6,76.28Zm.26,19.25-.1.14a.69.69,0,0,1-.13.11c.16.12.28.1.36-.07a.1.1,0,0,0,0-.08v-.1h-.09A.06.06,0,0,0,81.86,95.53Zm.58,0c.08,0,.14,0,.15,0a.48.48,0,0,0,.08-.16.77.77,0,0,1,.08-.19s0,0,0,0h0a.86.86,0,0,0-.26.18Zm3.12-.74s0-.09,0-.21a1,1,0,0,0-.21.11l-.18.1c.08.08.16.12.22.1A.7.7,0,0,0,85.56,94.79Zm0-1.28v-.07l-.16,0v.05Zm.1-.15.06,0c0-.07,0-.11-.06-.13l0,.05A.16.16,0,0,0,85.69,93.36Zm.47.33.26-.18.26-.17a.41.41,0,0,0-.11-.17s-.08,0-.15.12a1.07,1.07,0,0,0-.14.16l-.14.19s0,0,0,0S86.16,93.68,86.16,93.69Z" style="fill:#66657c"/><path d="M99.5,90.12q-.36.47-.72.87l-.57.73-.57.72-.49.69c-.16.22-.33.44-.52.66a2.2,2.2,0,0,0-.28.49l-.21.53a1.86,1.86,0,0,1-.41.62,5.57,5.57,0,0,0-.51.58,9.65,9.65,0,0,0-.59.88,1.76,1.76,0,0,0-.21,1V98a2.14,2.14,0,0,0-.39.28,3.89,3.89,0,0,1-.39.28h0l-.11,0-.12,0h-.07l-.06,0v-.08a.63.63,0,0,1-.52-.44.72.72,0,0,0-.34-.35,1.56,1.56,0,0,1-.55-.68,6.71,6.71,0,0,1-.26-.83,5.94,5.94,0,0,1,0-2.55c.09-.44.18-.89.28-1.36a11.77,11.77,0,0,1,.35-1.36,14.71,14.71,0,0,1,.49-1.46c.2-.47.39-1,.58-1.45.08-.22.17-.44.26-.66s.18-.44.28-.64.29-.61.45-.9.32-.6.49-.88l1-1.66c.31-.56.63-1.11,1-1.66l.92-1.49.94-1.49c.33-.54.66-1.09,1-1.63l1-1.63c.19-.29.37-.58.55-.87s.34-.58.49-.87a.51.51,0,0,1,.33-.24l.4-.09a.53.53,0,0,0-.06.14.37.37,0,0,1-.07.14h.38l.35,0a.37.37,0,0,1,.37.2.87.87,0,0,0,.26.33,1.19,1.19,0,0,1,.23.26.5.5,0,0,0,.24.2.64.64,0,0,1,.49.43l.21.63a.85.85,0,0,1-.08.67.75.75,0,0,1-.13.11l-.13.1-.09.1a.27.27,0,0,0-.06.1,3.35,3.35,0,0,0-.15.35,1.34,1.34,0,0,1-.17.31l-.52.72c-.17.24-.36.47-.55.71l-.31.41-.31.41a.07.07,0,0,1-.08,0,.07.07,0,0,0-.08,0,1.69,1.69,0,0,0-.26.21.37.37,0,0,0-.08.14.13.13,0,0,1-.07.11q-.19.06-.21.18a.73.73,0,0,1-.11.26.77.77,0,0,1-.14.19,1.54,1.54,0,0,0-.17.19s0,.06-.05.07a.11.11,0,0,0,0,.08,1.37,1.37,0,0,1-.55.89,1.86,1.86,0,0,0-.41.46c0,.12-.1.24-.14.36a.44.44,0,0,1-.28.25s0,0,0,.08a1,1,0,0,1-.26.51,5.15,5.15,0,0,0-.37.48l-.06.08s0,0,0,0,.08.24,0,.3a1.33,1.33,0,0,0-.19.14,1,1,0,0,0-.49.56,2.94,2.94,0,0,1-.34.66,7.93,7.93,0,0,0-.51.82l-.45.84a.23.23,0,0,0,0,.13.17.17,0,0,1,0,.12l-.12.14-.12.14h-.1a.92.92,0,0,1,0,.25,1.3,1.3,0,0,0-.34.25c-.07.07,0,.2.11.39H96s0,0,0,0,0,0,0,0a2.09,2.09,0,0,0,0,.25,1.13,1.13,0,0,1,0,.26.51.51,0,0,1-.1.21,2.18,2.18,0,0,0-.12.22c0,.07-.07.13-.1.19s-.12.08-.24.07a.12.12,0,0,0-.1.06.48.48,0,0,1-.09.11l0,.05,0,.06.22-.13.08,0-.25.41-.27.49a1,1,0,0,1-.06.37c-.05.21-.11.43-.19.67a7.05,7.05,0,0,1-.25.66c-.09.21-.17.32-.24.34l-.09.3a2.84,2.84,0,0,0-.06.31,4.63,4.63,0,0,0-.09.49c0,.17-.06.33-.1.5a1.28,1.28,0,0,1-.06.23,1.55,1.55,0,0,0-.07.23.81.81,0,0,0,0,.27.86.86,0,0,1,0,.27v0a3.37,3.37,0,0,0,.19-.32,3.19,3.19,0,0,1,.23-.32c.15-.22.32-.43.49-.65s.36-.42.55-.62a.25.25,0,0,1,.12-.08.07.07,0,0,0,.06-.07,5.68,5.68,0,0,1,.51-1,4.43,4.43,0,0,1,.74-.89l.51-.51a1.72,1.72,0,0,0,.38-.54,2.47,2.47,0,0,1,.34-.62c.14-.18.29-.35.44-.52a2.36,2.36,0,0,1,.42-.36.55.55,0,0,0,.24-.51.48.48,0,0,0,.31-.09.74.74,0,0,0,.16-.2,1,1,0,0,0,.12-.26.92.92,0,0,1,.13-.24l.75-.88c.25-.3.51-.59.77-.88s.38-.37.59-.55a3.05,3.05,0,0,0,.52-.57,1.3,1.3,0,0,1,.46-.42,2.44,2.44,0,0,1,.57-.24c-1,1-1.93,2.06-2.82,3.13S98.82,90.1,98,91.22l.16.15c.31-.39.62-.77.94-1.13l.93-1.11.11.05-.31.47Zm-6.93,3a1.73,1.73,0,0,0,.08-.27.92.92,0,0,1,.08-.27.42.42,0,0,1,.14-.12l.19-.1-.18-.14-.13-.09a1,1,0,0,1,.1-.21l.11-.15a1.55,1.55,0,0,0,.06-.31,1.09,1.09,0,0,1,.07-.3c.08-.22.17-.44.25-.65s.16-.43.24-.65L93.9,89c.1-.26.22-.53.34-.8s.14-.3.2-.45a4.49,4.49,0,0,1,.24-.42l.21-.38.21-.38.3-.55c.09-.18.19-.36.3-.55a.53.53,0,0,1,.12-.14.2.2,0,0,0,.06-.14.82.82,0,0,1,.14-.47l.27-.4a1.08,1.08,0,0,1,.21-.28.85.85,0,0,0,.22-.28,1.63,1.63,0,0,0,.21-.44,1.85,1.85,0,0,1,.21-.45l.41-.69.42-.66c0-.07.06-.13.08-.19a1,1,0,0,1,.08-.19c-.19,0-.32,0-.38.06a.67.67,0,0,0-.12.32,1,1,0,0,1-.18.49,4.61,4.61,0,0,0-.29.43c0,.08-.11.11-.18.08s-.22,0-.25.07a1.34,1.34,0,0,1-.09.26,1.87,1.87,0,0,0,.31-.1c0,.23-.11.38-.24.43a.9.9,0,0,1-.5,0,.89.89,0,0,0-.08.17.65.65,0,0,1-.08.17l.08,0a1,1,0,0,1,.21-.09l.24-.09,0,0-.13.17-.14.16a.56.56,0,0,0-.13-.07.35.35,0,0,1-.1-.08l-.11,0a3.53,3.53,0,0,1,.21.36.39.39,0,0,1-.14,0l-.17,0a.55.55,0,0,1-.18.06c-.06,0-.1,0-.11.06a2.11,2.11,0,0,1-.37.69l-.25.4c-.08.12-.16.26-.23.39s-.09.24-.13.35-.07.21-.1.31l0,.11a.59.59,0,0,1,.21,0,.23.23,0,0,1,.07.1.26.26,0,0,1-.14.07.19.19,0,0,0-.12.11,3.12,3.12,0,0,0-.15.39,3.7,3.7,0,0,1-.13.4.62.62,0,0,1-.14.19c-.05.06-.11.12-.16.19l-.08-.08.21-.25a2,2,0,0,0,.18-.26.17.17,0,0,0,0-.13.6.6,0,0,1,0-.12.27.27,0,0,1-.1.06.16.16,0,0,0-.08.06,3.27,3.27,0,0,0-.17.31c0,.1-.09.21-.14.31l-.08.14c0,.06,0,.1,0,.14s0,.06.09.07l.17.08c-.06.09-.1.17-.15.26l-.14.28a.27.27,0,0,0-.14-.08,1.83,1.83,0,0,1-.25-.1v.94l-.15,0-.19,0a.05.05,0,0,0,0,0s0,0,0,0l.31.08a2.2,2.2,0,0,1-.09.21,1.63,1.63,0,0,1-.09.19.57.57,0,0,0-.36.12,1.65,1.65,0,0,0-.16.55l.21-.22L93,90.4l-.1.41a1.59,1.59,0,0,1-.09.33,1.54,1.54,0,0,0-.19.17l-.19.16.15.23a.6.6,0,0,1-.18.07l-.21.06.17.14.12.12a.19.19,0,0,0-.07.11.61.61,0,0,0,0,.14.2.2,0,0,1,0,.13.23.23,0,0,1-.14.07.3.3,0,0,0-.13.09c0,.05,0,.1.08.17s.1.1.09.15-.07.09-.17.11a.18.18,0,0,0-.16.12,1.06,1.06,0,0,0-.1.28c-.11.14-.08.22.08.23s.2.1.07.26a.17.17,0,0,0,0,.12c0,.14-.06.27-.08.39s0,.24,0,.38a1.71,1.71,0,0,0,0,.31c0,.1,0,.21,0,.33H92a1.38,1.38,0,0,0,0-.35.88.88,0,0,1,0-.32c.09-.28.17-.57.26-.86S92.48,93.37,92.57,93.08Zm.39.64a.09.09,0,0,0,0-.1.11.11,0,0,1,0-.08.77.77,0,0,0,.24-.47,1.71,1.71,0,0,1,.13-.53,1.14,1.14,0,0,0,.06-.25,2.34,2.34,0,0,1,0-.26l-.19,0L93,92c0,.08.08.17.13.25a.2.2,0,0,1,0,.23,1.51,1.51,0,0,0-.17.49.86.86,0,0,1-.22.46.23.23,0,0,0,0,.16v.22s0,0,.13.08l.06-.06A.07.07,0,0,0,93,93.72Zm1-3-.14-.17a.41.41,0,0,1-.12-.14,1.06,1.06,0,0,1,.25-.11c.07,0,.06-.11,0-.24a.09.09,0,0,1-.09.07l-.13,0a.17.17,0,0,0-.12,0s0,.08,0,.16,0,.16,0,.23l.06.23h.07l-.2.15-.24.18a.37.37,0,0,0,.16.07.22.22,0,0,1,.13.06,1.8,1.8,0,0,0,0,.19.64.64,0,0,1-.06.14l-.2,0-.19,0a1.37,1.37,0,0,0,.19.21l.15.17.12-.08a.38.38,0,0,0,.09-.09,5.58,5.58,0,0,0,.18-.58C93.87,91.09,93.93,90.9,94,90.71Zm-.31,5.71s0,0,0,0,0,0,0,0,0,0,0,0S93.67,96.44,93.67,96.42Zm1.66-8.18a2,2,0,0,0,.29-.16.24.24,0,0,0,0-.15.4.4,0,0,1-.4.15,1.27,1.27,0,0,1-.37-.25.88.88,0,0,1,0,.21.77.77,0,0,0,0,.15,1.42,1.42,0,0,0-.26-.1c0,.07-.07.13-.1.2l-.1.17s0,0,0,0a.06.06,0,0,1,0,0,.52.52,0,0,1,.16-.06.34.34,0,0,0,.15-.07.35.35,0,0,1-.18.29.56.56,0,0,1-.19.07.49.49,0,0,0-.17.06l.18.16.13.1a.94.94,0,0,1-.31.07,1.21,1.21,0,0,0,0,.34l-.24.12.13.09.1.09-.14,0-.14,0a1.43,1.43,0,0,0,.15.18,1.06,1.06,0,0,1,.15.15,3.15,3.15,0,0,0,.27-.59.79.79,0,0,1,.47-.46l-.08-.07a.28.28,0,0,1,0-.08.21.21,0,0,1,0-.18l.08-.09s.06,0,.08,0,.18,0,.22,0a.79.79,0,0,0,.12-.15l-.14-.1a.65.65,0,0,1-.12-.11.26.26,0,0,1,.13-.06A.26.26,0,0,0,95.33,88.24Zm-.41-.67a.5.5,0,0,1,0,.12.16.16,0,0,0,0,.11.38.38,0,0,0,.11.08l.1.05.2-.14.19-.14a.25.25,0,0,0,0-.33,1,1,0,0,0-.28-.18c-.09,0-.14,0-.15,0a.33.33,0,0,0,0,.15c0,.06,0,.11,0,.16A.16.16,0,0,1,94.92,87.57Zm.47-2.11a2.28,2.28,0,0,0-.19.48l-.13,0a1.25,1.25,0,0,0,.09-.25,2.77,2.77,0,0,1,.1-.26S95.32,85.42,95.39,85.46Zm.49,1.3c0-.19.07-.38.12-.56l.12-.56a.23.23,0,0,1-.13,0,.25.25,0,0,0,0,.13c0,.05,0,.09,0,.13s-.18,0-.22,0a.15.15,0,0,0-.08.13,1.11,1.11,0,0,0,0,.19.18.18,0,0,1,0,.15s0,.07.08.17a1.53,1.53,0,0,1,.16.26h.1Zm.18.33a3.61,3.61,0,0,0,.23-.36c.06-.12.14-.24.22-.38C96.16,86.43,96,86.68,96.06,87.09Zm.65-1.84a.54.54,0,0,0,0-.29,1.67,1.67,0,0,1,0-.32l-.13,0-.24.29a3.15,3.15,0,0,1-.24.3.17.17,0,0,0,0,.12.24.24,0,0,1,0,.16h.27a1.4,1.4,0,0,0-.06.28,1,1,0,0,1,0,.28h.1c0-.07.05-.17.08-.31.19,0,.28,0,.28-.14A.87.87,0,0,1,96.71,85.25Zm.87-.76a.2.2,0,0,0,0-.08l0-.1c-.1.19-.2.35-.29.5s-.18.28-.26.42a.8.8,0,0,0,.37-.3A1.15,1.15,0,0,0,97.58,84.49Zm-.11-3.29c-.08.12-.16.24-.23.36L97,82l.29,0c0-.12.1-.23.14-.35l.12-.34Zm12.12,2.24s0,.06,0,.07,0,0,0,.06a.67.67,0,0,1,0,.4,1,1,0,0,1-.2.3,2.27,2.27,0,0,1-.28.26,1.05,1.05,0,0,0-.27.24c-.1.12-.2.23-.31.34a3.27,3.27,0,0,0-.28.37c-.42.55-.8,1.07-1.15,1.58a1.43,1.43,0,0,1-.22.3.31.31,0,0,0-.09.34s0,0-.06.08l-.15.23-.18.23a.66.66,0,0,0-.17.33.48.48,0,0,1-.25.3.24.24,0,0,0-.09.17.57.57,0,0,1-.07.22,1,1,0,0,1-.11.17.46.46,0,0,0-.1.18,2.44,2.44,0,0,1-.65,1c-.14.14-.27.27-.39.41a.78.78,0,0,0-.18.54.16.16,0,0,1,0,.1.14.14,0,0,0,0,.1,2.23,2.23,0,0,0,0,.23,1.34,1.34,0,0,0,0,.2l-.35.4-.38.42a.68.68,0,0,1,.21.1.1.1,0,0,1,0,.13s0,.05-.08.05a.56.56,0,0,0-.33.15.48.48,0,0,0-.06.41.82.82,0,0,1,.12-.2,2.12,2.12,0,0,0,.11-.21l0,0,0,0c0,.09-.07.17-.1.24s-.07.17-.11.27l-.28-.1-.21.46a5.06,5.06,0,0,1-.24.46c.14.07.24.06.3,0a1.28,1.28,0,0,0,.15-.25c.07.24,0,.38-.29.41a1.71,1.71,0,0,0-.3.09l-.3.12a.1.1,0,0,0,.1.07h.15a.15.15,0,0,1,.1,0s0,.08,0,.17a.74.74,0,0,0-.19.15c-.08.17-.16.34-.22.51s-.12.34-.19.51l-.47,1.22a.91.91,0,0,0,0,.36c.09-.14.18-.28.26-.42l.26-.42s0,0,0,0l0,0a.25.25,0,0,0,0,.13.21.21,0,0,1,0,.12l-.2.62a3.66,3.66,0,0,1-.22.58,1.16,1.16,0,0,1-.2.32,4.4,4.4,0,0,0-.27.35h.24c0,.18-.08.38-.12.58s-.08.4-.12.59a2.17,2.17,0,0,0,0,.25l0,.26a4.15,4.15,0,0,0,0,.49v.48a.87.87,0,0,1-.05.28c0,.08-.13.11-.31.07a3.35,3.35,0,0,1,.06.36,2,2,0,0,0,.07.31c0,.1.1.15.18.14l.26,0a.65.65,0,0,1,.26-.06l.26,0a.83.83,0,0,1-.65.92c-.09,0-.14,0-.16-.06a.59.59,0,0,0-.36-.2,2.13,2.13,0,0,1-.42-.1.29.29,0,0,1-.13-.12.44.44,0,0,0-.13-.14,2.34,2.34,0,0,1-.92-1.22,5.1,5.1,0,0,1-.23-1.53q0-.47,0-.93c0-.32,0-.63.08-.93a3.74,3.74,0,0,1,.09-.52c0-.17.08-.34.12-.53s.13-.58.2-.86.15-.58.24-.87.18-.57.28-.84.2-.55.28-.82l.57-1.49c.19-.5.39-1,.59-1.49s.49-1.18.74-1.76l.76-1.76c.19-.39.38-.77.59-1.15s.41-.75.6-1.14l.61-1.13.61-1.12a1.09,1.09,0,0,1,.14-.23.61.61,0,0,0,.15-.23v0c-.31.25-.63.51-.94.78l-.91.77a.1.1,0,0,1-.08,0l1-.84,1-.84s0,0,0-.06a.1.1,0,0,0,0-.07c.1-.13.2-.28.3-.43a2.67,2.67,0,0,1,.32-.43,2.74,2.74,0,0,1,.55-.46.59.59,0,0,1,.83.07.17.17,0,0,0,.13.05,1,1,0,0,1,.47.22,1.38,1.38,0,0,1,.31.4.78.78,0,0,0,.29.28,1.85,1.85,0,0,1,.34.23l.08.06s0,0,0,.06l.2.27.16.27a.23.23,0,0,1,0,.13A.21.21,0,0,0,109.59,83.44ZM99.26,99.68l.12-.47.12-.47s0-.06-.11-.13a.11.11,0,0,1-.08.07.06.06,0,0,0,0,.06,2.87,2.87,0,0,0-.05.31,1.53,1.53,0,0,1,0,.3,2.38,2.38,0,0,0,0,.33Zm2.35-4.51-.14,0a.32.32,0,0,0-.14,0,.41.41,0,0,0-.16,0l-.16,0a.75.75,0,0,0,.07-.23,1.31,1.31,0,0,1,.06-.23h-.07q-.13.18-.27.33a.48.48,0,0,0-.12.41.81.81,0,0,1-.08.43.9.9,0,0,1-.1.22.85.85,0,0,1-.1.14l-.21-.17-.15-.14c0,.17-.05.29-.07.36h-.06l0-.14a.66.66,0,0,1,0-.14c-.05.1-.11.2-.17.3s0,.19.14.3,0,0,0,0a1,1,0,0,1,0,.1,1.4,1.4,0,0,1-.12.18.81.81,0,0,0-.12.18h0c0,.15,0,.31,0,.47l0,.47.07,0a.58.58,0,0,0,.08-.1.5.5,0,0,0,.05-.13l.38-1.3c0-.13.08-.18.14-.17a.57.57,0,0,1,.21.17c-.18,0-.27,0-.27.09a.81.81,0,0,1,0,.27.21.21,0,0,0,0,.14,1.09,1.09,0,0,1,0,.17l.14,0,.16,0a.42.42,0,0,0,0,.1s0,.07,0,.08a.62.62,0,0,1-.19,0c-.07,0-.1,0-.1,0a1.25,1.25,0,0,0-.07.31A1.45,1.45,0,0,1,100,98a.49.49,0,0,1,0,.2,1.73,1.73,0,0,0-.3.69,2.61,2.61,0,0,0,0,.74v.13c-.14.1-.18.21-.12.32a.34.34,0,0,1,0,.34.11.11,0,0,0,.08,0l.17-.14.17-.14a3.55,3.55,0,0,0-.21-.44h.3a.67.67,0,0,1-.06-.12s0-.1,0-.16a.26.26,0,0,1,.14-.06l.18,0c.09,0,.16-.12.22-.27s.06-.24,0-.29-.2-.23-.17-.34a1.32,1.32,0,0,1,.14-.37,2.37,2.37,0,0,0,.17-.41c0-.14.11-.29.18-.46.32-.12.38-.27.18-.46.09-.13.17-.27.24-.39l.21-.4a.18.18,0,0,0,.06-.15.19.19,0,0,0,0-.13c-.11-.08-.15-.15-.12-.2a1.09,1.09,0,0,0,.09-.21,1.15,1.15,0,0,0,.3,0Zm-1.64.26-.18.46h.26a.49.49,0,0,1,.17-.06.36.36,0,0,0,.17-.07.12.12,0,0,1,0-.07.4.4,0,0,0-.15,0l-.16,0a.43.43,0,0,1,0-.11.22.22,0,0,0,0-.1H100Zm1.7-1.07a1.17,1.17,0,0,1,.06-.2.18.18,0,0,0,0-.16c0-.1-.07-.21-.11-.31a.42.42,0,0,1,0-.33l0-.1a3.56,3.56,0,0,0-.2.38l-.18.36-.06,0-.06,0a1.19,1.19,0,0,0,0-.31c0-.08,0-.18.06-.29s0-.18,0-.19-.23-.16-.18-.22a.71.71,0,0,0,.15-.22.1.1,0,0,0,0-.09.2.2,0,0,1,0-.09.08.08,0,0,0-.06,0l-.12,0a1.63,1.63,0,0,1-.14.34.35.35,0,0,0,0,.29,1.77,1.77,0,0,1,.07.5.59.59,0,0,1-.17.39,1.24,1.24,0,0,0-.19.28.41.41,0,0,0-.06.28.43.43,0,0,0-.3.27.63.63,0,0,0,0,.52l.07-.25s0,.06,0,.08l0,.07a.67.67,0,0,0,0,.23s0,0,.07,0a.12.12,0,0,0,.09,0,.14.14,0,0,0,0-.1.19.19,0,0,1,0-.1.44.44,0,0,0,0-.1.23.23,0,0,1,0-.11c0-.1.07-.2.1-.31a3.05,3.05,0,0,1,.13-.32,1,1,0,0,1,.11-.21,1.45,1.45,0,0,0,.1-.18,1,1,0,0,0,.21.13.1.1,0,0,0,.08,0l.11-.13C101.54,94.2,101.61,94.29,101.67,94.36ZM101.2,92a.29.29,0,0,0-.06.16.39.39,0,0,1,0,.15s0,0,0,0a.06.06,0,0,1,0,0c0-.13.11-.26.16-.37l.16-.37a.14.14,0,0,0-.06-.1c-.07,0-.1.06-.1.08a.88.88,0,0,0-.09.2Zm1.3-2.16a9,9,0,0,0-.91,2.11c.12,0,.19,0,.19,0l.24-.84a.56.56,0,0,1,.13-.23A1.39,1.39,0,0,0,102.5,89.87Zm-.31,3a.59.59,0,0,1,.06-.14.09.09,0,0,0,0-.11,1.62,1.62,0,0,0-.23-.31v-.18a.31.31,0,0,1-.1,0s-.05,0,0,0a.34.34,0,0,1-.07.33,1.12,1.12,0,0,0-.19.29.08.08,0,0,0,0,.08.1.1,0,0,1,0,.09l0,0,0,0,.16-.2a.66.66,0,0,0,.11-.16l.11.08A.37.37,0,0,1,102.19,92.85Zm-.34.92a.43.43,0,0,1,.14-.24q.12-.12-.09-.27a.38.38,0,0,1-.1.25C101.73,93.6,101.74,93.68,101.85,93.77Zm.83-2h-.28c.06-.14.12-.27.17-.4a2.93,2.93,0,0,1,.16-.39,1.06,1.06,0,0,0-.47.47.82.82,0,0,0-.15.55h.44A1.3,1.3,0,0,1,102.68,91.75Zm.13,3.42a.65.65,0,0,1,0,.41c-.05.07-.16.09-.31,0l0-.1,0-.1Z" style="fill:#66657c"/><path d="M120.06,86a1.79,1.79,0,0,1,0,.61c0,.21,0,.41,0,.62a1,1,0,0,0,0,.16.32.32,0,0,1,0,.17q0,.2-.09.42a1.39,1.39,0,0,1-.14.42,3.34,3.34,0,0,1-.17.38.46.46,0,0,0,0,.41.36.36,0,0,1,0,.43,1.66,1.66,0,0,0-.26.39c-.09.17-.17.34-.25.51s-.16.34-.25.51l-.09.1-.09.1c-.12.17-.23.34-.34.51s-.22.34-.34.51l-.32.41a4.23,4.23,0,0,0-.33.41.17.17,0,0,0-.06.12.6.6,0,0,1-.07.18l-.23.13.21.23c-.2.2-.38.4-.57.6l-.56.6-.47.57c-.15.2-.31.39-.46.57l-.36.35a4.06,4.06,0,0,1-.37.32l-.32.26a1.84,1.84,0,0,1-.34.27,5.79,5.79,0,0,1-.59.42,3.6,3.6,0,0,0-.58.45,1.05,1.05,0,0,1-.61.29,1.5,1.5,0,0,0-.61.22.41.41,0,0,1-.25,0,1.19,1.19,0,0,1-.27-.07,2.81,2.81,0,0,1-.6-.31.55.55,0,0,0-.3-.11.42.42,0,0,1-.3-.17c-.12-.14-.25-.27-.38-.41s-.26-.27-.4-.4a2,2,0,0,1-.39-.62c-.11-.2-.21-.41-.32-.62a6,6,0,0,1-.28-.68,1.5,1.5,0,0,1-.08-.32c0-.11,0-.21-.05-.31s0-.48,0-.7a4.23,4.23,0,0,1,0-.71,7.3,7.3,0,0,1,.15-.73c.06-.26.12-.51.19-.75a.1.1,0,0,1,.05-.08s.06,0,.06-.07a.72.72,0,0,0,0-.2.3.3,0,0,1,0-.16c.16-.5.33-1,.52-1.45a3.38,3.38,0,0,1,.18-.44l.21-.43c.07-.13.13-.27.19-.41a2.39,2.39,0,0,1,.2-.43c.11-.22.21-.43.32-.63a5.24,5.24,0,0,1,.34-.61c.29-.57.59-1.11.91-1.64l.24-.39.25-.4a.32.32,0,0,0,.08-.12c0-.06,0-.09,0-.11a.37.37,0,0,0-.31-.17l-.28.06-.27.09a.39.39,0,0,0-.29-.2,1.33,1.33,0,0,0-.46.11,1.62,1.62,0,0,1-.57.09,1.37,1.37,0,0,1-.58-.12l.17-.08a.27.27,0,0,1,.12,0,.6.6,0,0,0,.37-.1,1.07,1.07,0,0,0,.28-.31l.09-.08.09-.07,1-.39,1-.35.55-.18.54-.18.28-.17c.09,0,.11-.16,0-.31a1.62,1.62,0,0,0,.62-.57,4.06,4.06,0,0,1,.52-.63c.14-.14.27-.27.39-.41s.26-.27.39-.41a.31.31,0,0,1,.29,0,.44.44,0,0,1,.24.18s.08.07.2.1l.29,0,.29,0s0,0-.06.07l.27.23a1.72,1.72,0,0,0,.32.23.51.51,0,0,1,.22.36.16.16,0,0,0,0,.1c.14.09.2.17.19.26s0,.17-.08.28-.14.24-.2.36a1.88,1.88,0,0,0-.14.38c0,.07,0,.13.1.2L118,83a8.09,8.09,0,0,0,.69.44,1.48,1.48,0,0,1,.42.36c.1.14.2.27.31.4a.21.21,0,0,1,0,.13.67.67,0,0,0,0,.18c.08,0,.14,0,.15.05a2.61,2.61,0,0,1,.06.26,4.06,4.06,0,0,0,.19.59A2.7,2.7,0,0,1,120.06,86Zm-1,.85a1,1,0,0,1,.08-.38c0-.12,0-.21-.16-.26,0-.22-.07-.43-.11-.63a3.78,3.78,0,0,1-.1-.57,1,1,0,0,0-.1-.36,1,1,0,0,0-.29-.31v.47a.69.69,0,0,1-.13-.16c-.05-.12-.09-.24-.13-.35a.85.85,0,0,0-.21-.36,1.13,1.13,0,0,0-.35-.28,2.62,2.62,0,0,0-.48-.22,1.84,1.84,0,0,0-.51-.1,1,1,0,0,0-.43.06.14.14,0,0,0-.1.1c-.16.19-.31.37-.47.54a5.75,5.75,0,0,0-.44.54q-.27.33-.51.66l-.51.66a1.74,1.74,0,0,0-.22.27l-.2.27c-.08.15-.18.3-.27.44a4.12,4.12,0,0,0-.27.45c-.14.22-.27.44-.39.65l-.4.67-.19.3a2.75,2.75,0,0,0-.17.29c-.14.26-.27.51-.38.75s-.23.49-.35.73a3.74,3.74,0,0,0-.22.51c-.06.17-.14.35-.22.53a.76.76,0,0,0-.11.31c0,.12-.12.16-.31.13a2.08,2.08,0,0,0,0,.61.53.53,0,0,1-.33.51v.08c0,.18-.07.38-.1.58s-.07.4-.11.59,0,.17-.06.27a.82.82,0,0,0,0,.26c0,.21,0,.41,0,.62s0,.4,0,.61.13.25.29.2l.56-.23a2.84,2.84,0,0,0,.53-.25l.63-.43c.2-.16.41-.3.6-.44s.37-.28.54-.43l.52-.44a2.72,2.72,0,0,0,.24-.24,3.53,3.53,0,0,0,.23-.27.31.31,0,0,1,.11-.2.26.26,0,0,1,.23-.08h.26c0-.05,0-.09,0-.14s0-.08,0-.14l.14-.12.19-.16.21-.14c.09,0,.13-.09.13-.14s0-.26.13-.24a.55.55,0,0,0,.31,0,3.27,3.27,0,0,0-.26.43.15.15,0,0,0,.08.05l.25-.19a1,1,0,0,0,.2-.21,1.92,1.92,0,0,1,.45-.53,1.91,1.91,0,0,0,.46-.52,1.16,1.16,0,0,1,.34-.36.74.74,0,0,0,.28-.41.52.52,0,0,1,.13-.2c.09-.14.18-.27.28-.4s.18-.25.27-.39a2.44,2.44,0,0,0,.14-.28,2.93,2.93,0,0,0,.12-.28,2.77,2.77,0,0,1,.18-.43l.19-.06,0,0a.05.05,0,0,1,0,0,1.23,1.23,0,0,0,0-.19.25.25,0,0,1,.06-.16.48.48,0,0,1,.07-.18,1.42,1.42,0,0,0,.11-.18,4.27,4.27,0,0,1,.13-.54A1.2,1.2,0,0,0,119.07,86.84Zm-8.42-3.45.58-.28a.49.49,0,0,0-.41,0C110.69,83.21,110.64,83.29,110.65,83.39Zm4.93,8.9.43-.51.43-.51h0a.05.05,0,0,0,0,0l-.12.26a.74.74,0,0,1-.17.25,2.68,2.68,0,0,1-.3.28c-.11.08-.21.17-.3.25S115.58,92.33,115.58,92.29Zm2-2.78a1,1,0,0,1-.11.33,4.18,4.18,0,0,1-.27.5,3.79,3.79,0,0,1-.37.48,1.61,1.61,0,0,1-.32.3q.28-.41.54-.81C117.24,90.05,117.41,89.78,117.59,89.51Zm.8-2.93c0-.1,0-.21,0-.31s0-.21,0-.33a.13.13,0,0,0,.1,0c0,.1,0,.2,0,.3a1.63,1.63,0,0,1,0,.31Z" style="fill:#66657c"/><path d="M137.73,83.83a1.06,1.06,0,0,0,.06.5,1.41,1.41,0,0,1,.07.54c0,.27-.08.54-.13.81s-.11.53-.16.8-.15.47-.23.71-.18.48-.26.72a.53.53,0,0,1-.16.2.32.32,0,0,0-.13.18,1.78,1.78,0,0,1-.38.75c-.18.21-.35.43-.51.65l-.57.7-.57.7-.73.77c-.25.25-.49.51-.73.76s-.25.27-.38.41l-.4.41a2.36,2.36,0,0,1-.33.24l-.38.24a.67.67,0,0,0-.14.15.86.86,0,0,1-.14.18.64.64,0,0,0-.1.13c0,.05-.05.08-.09.08a.81.81,0,0,0-.57.34,1.32,1.32,0,0,1-.52.45,3.09,3.09,0,0,0-.44.24,1.29,1.29,0,0,1-.47.19,1.18,1.18,0,0,0-.5.28,1.54,1.54,0,0,1-.47.33,7.68,7.68,0,0,1-.79.32l-.8.27c-.31.08-.61.18-.91.28a6.78,6.78,0,0,1-.91.25,6.86,6.86,0,0,1-.81.12c-.28,0-.55,0-.83.06s-.36.12-.39.31a4,4,0,0,1-.16.59l-.21.56a.29.29,0,0,0,0,.16,1.17,1.17,0,0,1,0,.37,1.78,1.78,0,0,0-.09.23l-.1.26s0,0,0,0a.2.2,0,0,0-.11,0,.34.34,0,0,0-.11.07s0,.06,0,.08a.33.33,0,0,1,.05.3c0,.11-.07.21-.1.31a.17.17,0,0,0,0,.18c-.14.24-.27.44-.39.61.17.14.25.25.23.35a1.08,1.08,0,0,1-.34.42.54.54,0,0,0,.11.12.1.1,0,0,0,0,0l.08.07c-.07.1-.14.2-.2.3l-.17.28c0,.1,0,.21,0,.31a1,1,0,0,1,0,.3,1.43,1.43,0,0,1-.07.46,4.14,4.14,0,0,0-.09.46c0,.21,0,.41-.06.61s0,.41,0,.62a1.78,1.78,0,0,0,0,.28c0,.1,0,.22-.06.35a.68.68,0,0,1,.19.54q0,.33-.06.69a.35.35,0,0,1,0,.18c0,.06,0,.1,0,.1a.36.36,0,0,0,.19.05.42.42,0,0,0,.2-.05c.19-.14.37-.27.53-.41s.34-.27.54-.41l.2-.14.21-.14.12.31a.24.24,0,0,1,0,.25,5.74,5.74,0,0,1-.38.79c-.15.26-.31.5-.48.74a.32.32,0,0,1-.25.17,1,1,0,0,0-.33.11,1.2,1.2,0,0,1-.32.14.26.26,0,0,1-.28-.11.1.1,0,0,0-.11,0H121a.93.93,0,0,1-.78-.38,1.27,1.27,0,0,0-.31-.34,1.34,1.34,0,0,1-.32-.35c-.14-.22-.26-.45-.38-.67a4.55,4.55,0,0,1-.27-.73c-.09-.43-.16-.86-.21-1.3s-.08-.88-.1-1.33a9.68,9.68,0,0,1,0-1.2c0-.4.08-.8.13-1.19s.16-.77.25-1.14.19-.74.28-1.13.17-.67.26-1,.17-.64.26-1l.09-.24a.78.78,0,0,1,.09-.21.23.23,0,0,1,0-.13L120,97a6.6,6.6,0,0,1-1-.83,4.66,4.66,0,0,1-.78-1,5.17,5.17,0,0,1-.26-.69c-.07-.24-.13-.47-.18-.71a2,2,0,0,1,0-1.1,5.67,5.67,0,0,1,.45-1l.08-.09a.58.58,0,0,0,.13-.11,3.55,3.55,0,0,0,0,.56,2.19,2.19,0,0,1,0,.51,1.22,1.22,0,0,1,0,.32,1.8,1.8,0,0,0-.06.32,1.51,1.51,0,0,0,0,.3.33.33,0,0,0,.24.23.21.21,0,0,1,.07.13,2.16,2.16,0,0,1,.13.41c0,.13.08.26.13.38l.25.27a1,1,0,0,0,.3.19,1.33,1.33,0,0,0,1.12-.18l.18-.15a.42.42,0,0,0,.16-.21c.19-.41.37-.82.52-1.25s.32-.85.47-1.27a4.7,4.7,0,0,0,.22-.63,6.5,6.5,0,0,1,.22-.62l.33-.74c.11-.24.21-.48.3-.71l.14-.35a2,2,0,0,0,.12-.34c.23-.46.44-.92.65-1.39s.44-.93.68-1.39.37-.76.64-1.25l.66-1.22.35-.65.33-.63.21-.29a1.48,1.48,0,0,0,.15-.25,6.88,6.88,0,0,0,.72.08l.61.08.2.06.19.09a.55.55,0,0,1,.21.14.46.46,0,0,0,.21.14l.26.12a.23.23,0,0,1,.13.24c0,.07,0,.1.08.1a.4.4,0,0,1,.23.59.28.28,0,0,1,0,.09.07.07,0,0,0,0,.06c.18.09.26.18.24.28a2.61,2.61,0,0,1-.08.33l-.68,1c-.27.44-.56.87-.86,1.29s-.68,1-1.07,1.56a.2.2,0,0,0,0,.14,1.37,1.37,0,0,1,0,.19l.06,0,.07,0a3.8,3.8,0,0,1,.41-.49l.2-.24c.06-.08.13-.17.22-.27,0,.09,0,.16-.05.22a1.42,1.42,0,0,0,0,.16,1,1,0,0,0,.44-.12.65.65,0,0,0,.31-.33,2,2,0,0,1,.84-1.05,1.52,1.52,0,0,0,.35-.32,2,2,0,0,1,.3-.34,7.23,7.23,0,0,0,.53-.59,2.41,2.41,0,0,1,.59-.51,5.34,5.34,0,0,0,.94-.75,2.29,2.29,0,0,1,1-.6h0a.09.09,0,0,0,.06,0c0-.23.13-.37.3-.4a1.5,1.5,0,0,0,.43-.18.29.29,0,0,0,.1-.13l-.1-.06a.11.11,0,0,0-.11,0l-.35.21-.38.23a3.55,3.55,0,0,0-.39.2l-.36.2a9.29,9.29,0,0,1,1.51-1,5.32,5.32,0,0,1,1.72-.53.93.93,0,0,1,1.12.87.37.37,0,0,0,.08.18l.1.15a3,3,0,0,1,.4.49A1,1,0,0,1,137.73,83.83Zm-18.61,20.83a.44.44,0,0,1,.11-.09.14.14,0,0,0,0-.09l-.07-.16a1,1,0,0,0-.09-.17l-.06,0-.09,0a1.8,1.8,0,0,1,.08.21A1.83,1.83,0,0,0,119.12,104.66Zm1.12-4.82c.09-.29.17-.57.25-.84s.16-.55.25-.82a1.61,1.61,0,0,1,.12-.33,2.55,2.55,0,0,0,.11-.33.24.24,0,0,0,0-.21l-.13-.2s-.06,0-.13,0a.22.22,0,0,0-.13.08c0,.12-.1.23-.14.34s-.09.23-.15.35c-.08.29-.16.57-.22.85s-.12.57-.19.86-.14.46-.2.68a5.72,5.72,0,0,0-.14.67,2.79,2.79,0,0,1-.18.58,1,1,0,0,0-.08.62.47.47,0,0,1-.07.25c0,.09,0,.17.15.26-.18.11-.26.23-.25.34a.75.75,0,0,0,.14.34c-.12.14-.18.25-.17.33a1,1,0,0,0,.22.39l.06-.14a.5.5,0,0,0,0-.12,3.43,3.43,0,0,0,.07-.56,1.44,1.44,0,0,1,.14-.56,5.11,5.11,0,0,0,.23-.8c.06-.27.12-.53.19-.81a4.85,4.85,0,0,1,.14-.58A4.84,4.84,0,0,0,120.24,99.84Zm.6,2a1.71,1.71,0,0,0,.09-.3c0-.11,0-.21.07-.31l-.07,0-.06,0a1.6,1.6,0,0,1-.22.28.75.75,0,0,0-.17.28,2,2,0,0,0-.07.4c0,.13,0,.26,0,.39a1,1,0,0,0,0,.21l.09-.08a.19.19,0,0,0,.07-.08,2.3,2.3,0,0,1,.12-.34A2.74,2.74,0,0,0,120.84,101.85Zm0-2.52A1.34,1.34,0,0,1,121,99l.13-.27a.32.32,0,0,0-.1-.2s0,0,0,0a.09.09,0,0,0-.07,0s-.09.15-.1.35A.78.78,0,0,0,120.87,99.33Zm2.47-8.11c.13-.26.23-.51.33-.76s.19-.51.3-.77a1.17,1.17,0,0,1,.16-.34.59.59,0,0,0,.05-.4s0-.08,0-.14a.58.58,0,0,1,.12-.14.39.39,0,0,1,.08-.14l.1-.11a4.7,4.7,0,0,1,.17-.45l.17-.42c.1-.26.21-.51.31-.75s.21-.49.32-.73a.2.2,0,0,0,0-.11.37.37,0,0,1,0-.15l-.12.09-.12.09a5.77,5.77,0,0,1-.27.56c-.09.19-.19.38-.27.57l-.47,1a9.71,9.71,0,0,0-.44,1c-.09.18-.18.37-.28.56s-.18.37-.25.56-.23.58-.33.88-.22.59-.34.88-.25.61-.37.92-.25.6-.39.89l-.08.2a.67.67,0,0,1-.08.18,1.66,1.66,0,0,1-.13.32c0,.11-.1.23-.15.37l.36-.06a.26.26,0,0,0,.21-.09,4.08,4.08,0,0,0,.31-.63l.26-.62c0-.12.07-.24.1-.36a2.37,2.37,0,0,1,.09-.36L123,92A5.39,5.39,0,0,0,123.34,91.22Zm7,1.35c.24,0,.32-.2.23-.46l-.69.52-.66.5c-.28.22-.56.44-.85.64a4.78,4.78,0,0,1-1,.51l-.18.09a.31.31,0,0,0-.16.11,2.15,2.15,0,0,1-.91.58c-.35.11-.7.23-1,.37s-.46.18-.68.28l-.7.3a.16.16,0,0,1,.07.07.06.06,0,0,0,.08,0l.43-.1.46-.13a.76.76,0,0,0,.19-.12l.22-.11a1.26,1.26,0,0,1,.56-.17.5.5,0,0,0,.46-.29.08.08,0,0,1,.09,0,.17.17,0,0,0,.12,0l.17,0,.19-.06.58-.32a3.25,3.25,0,0,0,.52-.37.58.58,0,0,1,.27-.14l.31-.09a.87.87,0,0,0,.27-.14.54.54,0,0,0,.16-.29H129c.19-.17.39-.34.6-.5l.59-.47Zm-5.08,2c0,.14.1.2.17.19a.73.73,0,0,0,.22-.09l.17-.08a.89.89,0,0,0,.19-.07l.24-.1a1.32,1.32,0,0,0,.41-.16L127,94a4.73,4.73,0,0,1,.39-.28l1.22-.86,1.21-.85a2.21,2.21,0,0,0,.32-.28c.1-.1.19-.2.28-.28a.39.39,0,0,0-.08-.1c-.82.62-1.64,1.22-2.48,1.79A16.28,16.28,0,0,1,125.25,94.56ZM135,83.75a.66.66,0,0,0,.28-.34.49.49,0,0,0-.09-.43l-.12-.24L135,82.5l-.24.11-.26.15c-.14.11-.28.24-.43.37a2.65,2.65,0,0,1-.46.31,2.73,2.73,0,0,0-.61.36,1.81,1.81,0,0,0-.43.56.1.1,0,0,1-.1.06.56.56,0,0,0-.16.07l-.31.14a1.34,1.34,0,0,0-.31.17l.11.12.09.1q-.26.26-.48.51a6.13,6.13,0,0,1-.51.51c-.2.21-.41.42-.61.64s-.38.45-.56.69a8.22,8.22,0,0,1-.82,1.07,6.51,6.51,0,0,0-.79,1.1,10,10,0,0,1-.64.92,9.85,9.85,0,0,0-.67.89c-.24.34-.46.68-.67,1s-.43.72-.65,1.07a.28.28,0,0,0,0,.13.88.88,0,0,1,0,.2l1.14-.52c.35-.16.7-.33,1-.52a13.27,13.27,0,0,0,1.58-1.07c.49-.39,1-.8,1.47-1.22a18.43,18.43,0,0,0,2.29-2.3A14.81,14.81,0,0,0,134,86.72a12.05,12.05,0,0,0,.85-1.59l.16-.44a.49.49,0,0,0-.11-.51s0-.1,0-.21A.44.44,0,0,1,135,83.75Zm-6.95,3.85a2.23,2.23,0,0,0-.26.27l-.29.29A.47.47,0,0,0,128,88,.52.52,0,0,0,128.09,87.6Zm3.22,4,.26-.24.27-.24-.11-.13-.5.46c-.17.15-.33.3-.49.43l.11.13s.07.07.11,0a1.33,1.33,0,0,0,.24-.11l.24-.14A1.33,1.33,0,0,1,131.31,91.6Zm-.44-7.29.58-.47q.28-.24.57-.45l.25-.18a1.15,1.15,0,0,1,.25-.12l-.8.65c-.27.21-.52.44-.77.67A.31.31,0,0,0,130.87,84.31ZM132.15,91c.12-.16.24-.34.35-.52l.38-.57-.31,0c-.12.14-.24.28-.35.43l-.33.44a.11.11,0,0,0,0,.11l.05.09C132,91,132.1,91,132.15,91Zm.44-7.92,0,0a.05.05,0,0,0,0,0l0,0Zm0,0,0,0,0,0-.06.06Z" style="fill:#66657c"/></svg>