<svg id="Capa_1" data-name="Capa 1" xmlns="http://www.w3.org/2000/svg" viewBox="0 0 151.61 135.41"><title>djangoEcommerce</title><path d="M128.93,75.82l-4.34-20.76h0A34.61,34.61,0,0,0,90.08,20.55h0L69.32,16.21c-6.13-2.76-14.24.1-16.48,2.34-5.62,5.62,6.34,26.68,26.7,47.05S121,97.92,126.59,92.3C128.83,90.06,131.69,82,128.93,75.82Z" style="fill:#662483"/><path d="M55.74,58.92a4.77,4.77,0,0,0,4.76-4.76h0a4.77,4.77,0,0,0-4.76-4.77H26.3a4.77,4.77,0,0,0-4.76,4.77h0a4.77,4.77,0,0,0,4.76,4.76h5.85V71.26H26.3A4.77,4.77,0,0,0,21.54,76h0a4.78,4.78,0,0,0,4.76,4.77h5.85v35.64a3.91,3.91,0,1,0,7.81,0V80.79H55.74A4.78,4.78,0,0,0,60.5,76h0a4.77,4.77,0,0,0-4.76-4.76H40V58.92Z" style="fill:#ef772b"/><path d="M71.31,118.1c-2.72,0-4.65-.6-5.77-1.81S63.85,113,63.85,110V90.94c0-3,.56-5,1.69-6.26s3-1.8,5.77-1.8H85a2.65,2.65,0,0,1,2.65,2.64h0A2.65,2.65,0,0,1,85,88.16H79a4,4,0,0,0-2.92.79,4.8,4.8,0,0,0-.74,3.14v3.12A2.65,2.65,0,0,0,78,97.85h5.75a2.65,2.65,0,0,1,2.65,2.64h0a2.65,2.65,0,0,1-2.65,2.64H78a2.65,2.65,0,0,0-2.65,2.64V109a4.58,4.58,0,0,0,.72,3c.48.51,1.45.76,2.94.76h6.61a2.64,2.64,0,0,1,2.64,2.64h0a2.64,2.64,0,0,1-2.64,2.64Z" style="fill:#ef772b"/></svg>