<svg id="Capa_1" data-name="Capa 1" xmlns="http://www.w3.org/2000/svg" viewBox="0 0 414.33 179.87"><title>djangoEcommerce</title><path d="M316.89,9.66a80.08,80.08,0,0,0-57.69,21.7c-10.41,9.77-3.27,27.29,11,27.29h0a15.2,15.2,0,0,0,10.46-4.07,48.71,48.71,0,1,1,.08,70.79,15.37,15.37,0,0,0-10.54-4.14h0c-14.25,0-21.42,17.49-11,27.25A80.32,80.32,0,0,0,394.48,88.65C393.82,46.09,359.44,11.07,316.89,9.66Z" style="fill:#009fe3"/><path d="M315.44,56a33.8,33.8,0,0,0-23.94,8.65,43.25,43.25,0,0,1-29,10.74H261.4a40,40,0,0,1-19.15-5.05,22.31,22.31,0,1,0-.15,39.25,41,41,0,0,1,19.31-5.13h2a42.7,42.7,0,0,1,28.26,10.88A33.95,33.95,0,1,0,315.44,56Z" style="fill:#009fe3"/><path d="M103.68,147.25a132,132,0,0,0,21-1.59,102.15,102.15,0,0,0,23.87-6.53c10.94-4.53,20.59-10.86,28-20.24a47.18,47.18,0,0,0,10.33-28.48A41.32,41.32,0,0,0,177.65,62a66.42,66.42,0,0,0-20.3-16.54c-16.47-9-34.26-12.57-52.82-12.79a117.5,117.5,0,0,0-29,3.21c-14.16,3.41-27.32,8.95-38.4,18.63-9,7.85-15.3,17.27-16.33,29.58-1.07,12.7,1.94,24.21,9.81,34.33,7,9,16,15.31,26.36,19.85C71.82,144.79,87.54,147.12,103.68,147.25Z" style="fill:#fefefe"/><path d="M103.68,147.25c-16.14-.13-31.86-2.46-46.76-9-10.34-4.54-19.37-10.86-26.36-19.85-7.87-10.12-10.88-21.63-9.81-34.33,1-12.31,7.35-21.73,16.33-29.58,11.08-9.68,24.24-15.22,38.4-18.63a117.5,117.5,0,0,1,29.05-3.21c18.56.22,36.35,3.82,52.82,12.79A66.42,66.42,0,0,1,177.65,62a41.32,41.32,0,0,1,9.28,28.45,47.18,47.18,0,0,1-10.33,28.48c-7.44,9.38-17.09,15.71-28,20.24a102.15,102.15,0,0,1-23.87,6.53A132,132,0,0,1,103.68,147.25Zm-1.63-9.38c17.58,0,32.72-2.88,46.35-8.69,10.3-4.39,19.54-10.32,26.67-19.13,5.76-7.1,9-15.14,8.81-24.43,0-1.21-.29-1.48-1.54-1.18-5.39,1.32-10.75,2.75-16.05,4.41-5,1.55-9.87,3.23-14.68,5.22-.45.19-1.3.12-.83,1.14,2.76,6-2.05,10.89-7.23,11-1.73,0-2.2.42-2.56,2.06-.86,3.87-5,6.54-9.42,6.37-.58,0-1.06-.23-1.4.62a8.66,8.66,0,0,1-9.77,5.41c-.53-.09-.89-.14-1.28.38a7.09,7.09,0,0,1-4.77,2.53c-3.22.58-6.13-.39-9-1.75a1.24,1.24,0,0,0-1.58.07c-5.2,4-11.15,2.84-14.58-2.77-.29-.48-.48-.72-1.14-.6-4.1.77-7.21-.82-9.47-4.22a1.23,1.23,0,0,0-1.28-.71,9.18,9.18,0,0,1-9.66-6.46c-.26-.78-.55-1-1.35-.93a7.9,7.9,0,0,1-8.16-10,1.33,1.33,0,0,0-.73-1.78,41.75,41.75,0,0,0-4.91-2.58c-8.92-3.94-18.37-6.13-27.82-8.29-1.14-.26-.86.49-.9,1a34.15,34.15,0,0,0,5.91,21.73c5.9,9,14.2,15.37,23.67,20.24C69.16,134.55,86.08,137.69,102.05,137.87ZM83,60.57a8.47,8.47,0,0,0-4.38.72,27.66,27.66,0,0,1-14.8.47,141.13,141.13,0,0,1-21.21-6.49,1.71,1.71,0,0,0-2.12.33c-1.08,1-2.27,2-3.35,3C31.37,64.12,27,70.49,24.87,78.23c-.4,1.42-.08,1.89,1.29,2.21,4.14,1,8.27,2,12.36,3.14,7.09,2,14.09,4.21,20.43,8.09a1.71,1.71,0,0,0,2.32,0,7.75,7.75,0,0,1,9.94.58,1.53,1.53,0,0,0,2.15.23A9.31,9.31,0,0,1,85,95.19a1.27,1.27,0,0,0,1.6.53c5.64-1.19,10.42,2.44,10.67,8.16,0,1.06.27,1.36,1.37,1.49A9.5,9.5,0,0,1,107,116.63c-.15.78-1,1.62-.34,2.33a6.81,6.81,0,0,0,2.3,1,10.13,10.13,0,0,0,2.92.65,7,7,0,0,0,4.06-.83c.76-.43,1.07-.89.27-1.72-1.88-1.94-3.66-4-5.47-6a10.27,10.27,0,0,1-.7-.78c-.37-.5-.73-1.06-.18-1.61s1.11-.21,1.62.14a8.55,8.55,0,0,1,.93.76c2,1.88,4,3.74,6,5.65a5.07,5.07,0,0,0,6.14,1c2.67-1.33,3.1-3.45,1.13-5.67-2.35-2.66-4.74-5.3-7.09-8-.48-.54-1.23-1.19-.47-1.91s1.4-.08,2,.4c.77.64,1.53,1.29,2.25,2,2.14,2,4.25,4.1,6.38,6.14s5.64,1.72,8.08-.72c2-2,1.82-4.2-.5-6.55-3.18-3.19-6.38-6.36-9.54-9.56-.63-.63-1.81-1.34-.91-2.32s1.73.13,2.39.71c3.8,3.33,7.54,6.72,11.32,10.07a5.67,5.67,0,0,0,7.84-.58c1.73-1.92,1.3-4.55-1.15-6.66-8.08-7-16.14-13.92-24.26-20.83a80.28,80.28,0,0,0-9.22-7.19,9.51,9.51,0,0,0-10.11-.38,50.51,50.51,0,0,0-7.21,4.85c-1.66,1.27-3.32,2.57-5.09,3.7-4.36,2.8-9,2.57-13.48.57-3.45-1.51-3.86-4.15-1.33-6.89Zm25.57-7.85C99.69,52.73,94,54.91,88.24,60c-3.6,3.2-6.73,6.85-10,10.34-1.27,1.35-1.2,1.87.53,2.53a10.81,10.81,0,0,0,9.55-.57A46.3,46.3,0,0,0,94,68.2a44.65,44.65,0,0,1,7.38-5.13c4.37-2.2,8.64-2.17,12.81.54a65.56,65.56,0,0,1,6.13,4.58c9.11,7.51,18,15.26,26.93,23a1.78,1.78,0,0,0,2.22.38A180.69,180.69,0,0,1,181.54,81.2c1.58-.36,1.67-.93,1.32-2.28-2.3-9-7.5-16-14.28-22.09a1.84,1.84,0,0,0-2.34-.35c-14.51,6.41-29,6.82-43.49-.19A35.22,35.22,0,0,0,108.52,52.72Zm-64.24,0a174.1,174.1,0,0,0,20.45,6,23.15,23.15,0,0,0,12.14-.25,39.08,39.08,0,0,1,9.51-2,3.6,3.6,0,0,0,2.18-.82,27.05,27.05,0,0,1,9.71-4.89c9.18-2.51,18-1,26.4,2.9,9.13,4.23,18.55,5.76,28.47,3.72a55.93,55.93,0,0,0,11.53-3.71C134,30.1,75.88,29.71,44.28,52.71ZM71.06,98.64c-.14-.69-.21-1.29-.38-1.86a5,5,0,0,0-9.38-.66,4.93,4.93,0,0,0,.89,5.56,5,5,0,0,0,6.69.61c.32-.22.55-.85,1.1-.47s.26.81.22,1.25a9.23,9.23,0,0,0,0,1.05c.11,5,4.73,7.84,9.18,5.53,1.18-.61,1.4-.13,1.35.95-.1,2.27,1.21,3.61,3.09,4.53a4.67,4.67,0,0,0,5.35-.32c1.6-1.25,1.73-1.18,2.06.88a6.5,6.5,0,1,0,7.6-7.27,6.78,6.78,0,0,0-3.1.24c-.63.16-1.31.83-1.94.18s.07-1.21.19-1.82.29-1.17.37-1.76c.35-2.63-.55-4.72-2.48-5.82A5.8,5.8,0,0,0,85,99.9c-1,.82-1.3.48-1.53-.61-.71-3.33-2.86-4.91-6.26-4.65A7.31,7.31,0,0,0,72,97.58C71.72,97.92,71.62,98.4,71.06,98.64Z" style="fill:#2c3674"/><path d="M102.05,137.87c-16-.18-32.89-3.32-48.66-11.41-9.47-4.87-17.77-11.19-23.67-20.24a34.15,34.15,0,0,1-5.91-21.73c0-.49-.24-1.24.9-1,9.45,2.16,18.9,4.35,27.82,8.29a41.75,41.75,0,0,1,4.91,2.58,1.33,1.33,0,0,1,.73,1.78,7.9,7.9,0,0,0,8.16,10c.8,0,1.09.15,1.35.93a9.18,9.18,0,0,0,9.66,6.46,1.23,1.23,0,0,1,1.28.71c2.26,3.4,5.37,5,9.47,4.22.66-.12.85.12,1.14.6,3.43,5.61,9.38,6.76,14.58,2.77a1.24,1.24,0,0,1,1.58-.07c2.83,1.36,5.74,2.33,9,1.75a7.09,7.09,0,0,0,4.77-2.53c.39-.52.75-.47,1.28-.38a8.66,8.66,0,0,0,9.77-5.41c.34-.85.82-.64,1.4-.62,4.41.17,8.56-2.5,9.42-6.37.36-1.64.83-2,2.56-2.06,5.18-.09,10-5,7.23-11-.47-1,.38-.95.83-1.14,4.81-2,9.72-3.67,14.68-5.22,5.3-1.66,10.66-3.09,16.05-4.41,1.25-.3,1.51,0,1.54,1.18.21,9.29-3,17.33-8.81,24.43-7.13,8.81-16.37,14.74-26.67,19.13C134.77,135,119.63,137.88,102.05,137.87Z" style="fill:#fee60a"/><path d="M83,60.57l-7.33,7.89C73.09,71.2,73.5,73.84,77,75.35c4.53,2,9.12,2.23,13.48-.57,1.77-1.13,3.43-2.43,5.09-3.7a50.51,50.51,0,0,1,7.21-4.85,9.51,9.51,0,0,1,10.11.38,80.28,80.28,0,0,1,9.22,7.19c8.12,6.91,16.18,13.87,24.26,20.83,2.45,2.11,2.88,4.74,1.15,6.66a5.67,5.67,0,0,1-7.84.58c-3.78-3.35-7.52-6.74-11.32-10.07-.66-.58-1.49-1.69-2.39-.71s.28,1.69.91,2.32c3.16,3.2,6.36,6.37,9.54,9.56,2.32,2.35,2.48,4.56.5,6.55-2.44,2.44-5.94,2.76-8.08.72s-4.24-4.11-6.38-6.14c-.72-.69-1.48-1.34-2.25-2-.59-.48-1.31-1.06-2-.4s0,1.37.47,1.91c2.35,2.66,4.74,5.3,7.09,8,2,2.22,1.54,4.34-1.13,5.67a5.07,5.07,0,0,1-6.14-1c-2-1.91-4-3.77-6-5.65a8.55,8.55,0,0,0-.93-.76c-.51-.35-1.08-.68-1.62-.14s-.19,1.11.18,1.61a10.27,10.27,0,0,0,.7.78c1.81,2,3.59,4,5.47,6,.8.83.49,1.29-.27,1.72a7,7,0,0,1-4.06.83A10.13,10.13,0,0,1,109,120a6.81,6.81,0,0,1-2.3-1c-.71-.71.19-1.55.34-2.33a9.5,9.5,0,0,0-8.35-11.26c-1.1-.13-1.33-.43-1.37-1.49-.25-5.72-5-9.35-10.67-8.16a1.27,1.27,0,0,1-1.6-.53,9.31,9.31,0,0,0-11.68-2.72,1.53,1.53,0,0,1-2.15-.23,7.75,7.75,0,0,0-9.94-.58,1.71,1.71,0,0,1-2.32,0c-6.34-3.88-13.34-6.11-20.43-8.09-4.09-1.15-8.22-2.17-12.36-3.14-1.37-.32-1.69-.79-1.29-2.21C27,70.49,31.37,64.12,37.09,58.6c1.08-1,2.27-2,3.35-3a1.71,1.71,0,0,1,2.12-.33,141.13,141.13,0,0,0,21.21,6.49,27.66,27.66,0,0,0,14.8-.47A8.47,8.47,0,0,1,83,60.57Z" style="fill:#fefefe"/><path d="M108.52,52.72a35.22,35.22,0,0,1,14.23,3.57c14.5,7,29,6.6,43.49.19a1.84,1.84,0,0,1,2.34.35c6.78,6.06,12,13.13,14.28,22.09.35,1.35.26,1.92-1.32,2.28a180.69,180.69,0,0,0-32.06,10.39,1.78,1.78,0,0,1-2.22-.38c-8.91-7.76-17.82-15.51-26.93-23a65.56,65.56,0,0,0-6.13-4.58c-4.17-2.71-8.44-2.74-12.81-.54A44.65,44.65,0,0,0,94,68.2a46.3,46.3,0,0,1-5.71,4.13,10.81,10.81,0,0,1-9.55.57c-1.73-.66-1.8-1.18-.53-2.53,3.29-3.49,6.42-7.14,10-10.34C94,54.91,99.69,52.73,108.52,52.72Z" style="fill:#fefefe"/><path d="M44.28,52.71c31.6-23,89.69-22.61,120.39,1a55.93,55.93,0,0,1-11.53,3.71c-9.92,2-19.34.51-28.47-3.72-8.45-3.91-17.22-5.41-26.4-2.9a27.05,27.05,0,0,0-9.71,4.89,3.6,3.6,0,0,1-2.18.82,39.08,39.08,0,0,0-9.51,2,23.15,23.15,0,0,1-12.14.25A174.1,174.1,0,0,1,44.28,52.71Z" style="fill:#fee60a"/><path d="M71.06,98.64c.56-.24.66-.72.94-1.06a7.31,7.31,0,0,1,5.19-2.94c3.4-.26,5.55,1.32,6.26,4.65.23,1.09.51,1.43,1.53.61a5.8,5.8,0,0,1,6.84-.46c1.93,1.1,2.83,3.19,2.48,5.82-.08.59-.26,1.17-.37,1.76s-.75,1.24-.19,1.82,1.31,0,1.94-.18a6.78,6.78,0,0,1,3.1-.24,6.48,6.48,0,1,1-7.6,7.27c-.33-2.06-.46-2.13-2.06-.88a4.67,4.67,0,0,1-5.35.32c-1.88-.92-3.19-2.26-3.09-4.53,0-1.08-.17-1.56-1.35-.95-4.45,2.31-9.07-.48-9.18-5.53a9.23,9.23,0,0,1,0-1.05c0-.44.24-.93-.22-1.25s-.78.25-1.1.47a5,5,0,0,1-6.69-.61,4.93,4.93,0,0,1-.89-5.56,5,5,0,0,1,9.38.66C70.85,97.35,70.92,98,71.06,98.64Z" style="fill:#fefefe"/></svg>