<svg id="Capa_1" data-name="Capa 1" xmlns="http://www.w3.org/2000/svg" viewBox="0 0 414.33 179.87"><title>djangoEcommerce</title><path d="M20.54,79.23v-4c0-.13.06-.27.08-.4.15-1.36.23-2.73.46-4.07a40.05,40.05,0,0,1,8.17-18.53A39.3,39.3,0,0,1,51.53,38a2.18,2.18,0,0,0,1.74-1.54A39.74,39.74,0,0,1,71.71,14.75a39.07,39.07,0,0,1,15.41-4.9l2.45-.24h4.1l2,.19a40.27,40.27,0,0,1,15.31,4.7A39.08,39.08,0,0,1,121,22.33a1.66,1.66,0,0,0,1.56.58c1.39-.22,2.78-.46,4.17-.58a38.59,38.59,0,0,1,12.22.8c12.74,3,22.06,10.43,27.87,22.17a38.82,38.82,0,0,1,3.89,20,35.32,35.32,0,0,1-1.66,9.06,1.72,1.72,0,0,0,.37,1.88A37.74,37.74,0,0,1,173.65,82,39.87,39.87,0,0,1,179,98.36c.1,1,.16,2,.25,3v2.59a2,2,0,0,0-.05.24c-.16,1.61-.23,3.23-.5,4.82a40.52,40.52,0,0,1-9.14,19.83A39.22,39.22,0,0,1,147.79,142a1.38,1.38,0,0,0-1.08,1A40.1,40.1,0,0,1,130,164a39.62,39.62,0,0,1-17.39,6l-2.57.24H106.3l-.53-.08c-1.53-.18-3.09-.26-4.6-.54a39.84,39.84,0,0,1-22.48-12.3,1.3,1.3,0,0,0-1.35-.46,38.26,38.26,0,0,1-16.19-.14,40.17,40.17,0,0,1-28.09-22,39.54,39.54,0,0,1-2.29-29.43,1.47,1.47,0,0,0-.31-1.51c-.6-.68-1.19-1.37-1.73-2.09a39.76,39.76,0,0,1-7.95-20.07Zm30.3-10.82h0V50.17c0-.18,0-.36,0-.54,0-.43-.21-.54-.62-.43l-.31.12C36.51,54.7,29.57,68.5,31.14,80.6a31.44,31.44,0,0,0,3.53,11.26A30.62,30.62,0,0,0,46.5,103.79l29.72,17.15a1.59,1.59,0,0,0,1.73,0c3.11-1.83,6.24-3.63,9.36-5.44,1-.61,2.11-1.2,3.15-1.81.13-.08.28-.24.28-.36s-.17-.26-.29-.36a2.08,2.08,0,0,0-.36-.2l-36.51-21a6.35,6.35,0,0,1-1.07-.8,5.55,5.55,0,0,1-1.67-4.35ZM149,111.19h0V129.6a4.21,4.21,0,0,0,0,.5c.05.62.19.71.76.47a29.23,29.23,0,0,0,10.8-7.29c6.68-7.41,9.44-16.08,7.82-26a29.22,29.22,0,0,0-8.62-16.46,36.36,36.36,0,0,0-7.42-5.39L123.57,58.91a1.66,1.66,0,0,0-1.84,0l-11.94,6.91c-1,.57-1,.63,0,1.2l26.31,15.21L146,87.92a5.38,5.38,0,0,1,2.87,3.71A12.85,12.85,0,0,1,149,94C149,99.76,149,105.47,149,111.19ZM84,62.6h0v6.86A5.63,5.63,0,0,0,84,70c0,.29.18.41.45.26L85,70q18.15-10.46,36.29-20.92a5.56,5.56,0,0,1,6,0l17.81,10.29,14.08,8.13c.64.37.81.3.91-.34a30.28,30.28,0,0,0-13.18-29.54,29.62,29.62,0,0,0-22.63-4.52,30.34,30.34,0,0,0-9.52,3.64Q99.8,45.35,84.87,54A1.71,1.71,0,0,0,84,55.61C84,57.94,84,60.27,84,62.6Zm-8.78,9.26h0c0-7,0-14,0-21.08A5.21,5.21,0,0,1,78,45.94c3.9-2.21,7.78-4.48,11.66-6.72L110.1,27.46c.69-.39.7-.55.09-1a30.88,30.88,0,0,0-5.12-3.23,30.15,30.15,0,0,0-38.13,9.3,29.11,29.11,0,0,0-5.43,13.64,47,47,0,0,0-.24,5.93q0,14,0,27.94c0,1.74,0,3.49,0,5.23a1.21,1.21,0,0,0,.64,1.17l12.26,7c.15.09.32.17.48.25.32.16.48,0,.51-.29a5.7,5.7,0,0,0,0-.71Zm49.51,36.34h0c0,5.86,0,11.72,0,17.57,0,1.27,0,2.54-.05,3.81a4.73,4.73,0,0,1-1.89,3.71,10.61,10.61,0,0,1-1.28.86L90,152.25c-.19.1-.36.21-.54.32s-.31.38-.06.61.34.33.53.47c7.6,5.61,16,7.61,25.25,5.48,9.56-2.2,16.41-8,20.66-16.8a25.61,25.61,0,0,0,2.69-10.86c0-3.16.06-6.31.06-9.46q0-13.58,0-27.15a1.57,1.57,0,0,0-.87-1.49q-6-3.42-12-6.87c-1-.6-1.09-.57-1.09.62Zm-8.9,9.13h0v-6.94c0-.17,0-.34,0-.51s-.21-.38-.47-.26a9.1,9.1,0,0,0-.81.44L91.27,123.45l-12.7,7.34a5.94,5.94,0,0,1-3.3.89,6.51,6.51,0,0,1-2.93-1L40.8,112.45c-.85-.48-1-.43-1.09.46a30.78,30.78,0,0,0,.14,9.24,29.33,29.33,0,0,0,10.41,18.13A29.71,29.71,0,0,0,73.43,147a28.08,28.08,0,0,0,10.82-3.52l16.14-9.25L114.82,126a1.67,1.67,0,0,0,1-1.56C115.78,122,115.79,119.69,115.79,117.33ZM84,89.85h0c0,2.62,0,5.25,0,7.87a2.09,2.09,0,0,0,1.13,2l14.23,8.2a1.09,1.09,0,0,0,1.21,0q7.15-4.15,14.32-8.29a1.7,1.7,0,0,0,1-1.65q0-7.89,0-15.77a2.37,2.37,0,0,0-1.3-2.25Q107.62,76,100.77,72A1.61,1.61,0,0,0,99,72Q92,76.1,85,80.09A2,2,0,0,0,83.94,82C84,84.61,84,87.23,84,89.85Z" style="fill:#13a27f"/><path d="M316.89,9.66a80.08,80.08,0,0,0-57.69,21.7c-10.41,9.77-3.27,27.29,11,27.29h0a15.2,15.2,0,0,0,10.46-4.07,48.71,48.71,0,1,1,.08,70.79,15.37,15.37,0,0,0-10.54-4.14h0c-14.25,0-21.42,17.49-11,27.25A80.32,80.32,0,0,0,394.48,88.65C393.82,46.09,359.44,11.07,316.89,9.66Z" style="fill:#4d4e61"/><path d="M315.44,56a33.8,33.8,0,0,0-23.94,8.65,43.25,43.25,0,0,1-29,10.74H261.4a40,40,0,0,1-19.15-5.05,22.31,22.31,0,1,0-.15,39.25,41,41,0,0,1,19.31-5.13h2a42.7,42.7,0,0,1,28.26,10.88A33.95,33.95,0,1,0,315.44,56Z" style="fill:#4d4e61"/></svg>