<svg id="Capa_1" data-name="Capa 1" xmlns="http://www.w3.org/2000/svg" viewBox="0 0 414.33 131.37"><title>djangoEcommerce</title><rect x="192.75" y="22.7" width="203.48" height="85.97" rx="12" style="fill:#009fe3"/><path d="M35.64,90.56a48.47,48.47,0,0,1-12.35-1.44c-.66-.2-1.31-.59-1.31-1.31v-6.4a1.09,1.09,0,0,1,1.18-1.25h.19c2.68.27,9.87.79,12.42.79,4.51,0,5.82-1.44,5.82-4.58,0-1.89-.91-2.94-4.31-5l-9-5.36c-6.07-3.59-7.71-7.71-7.71-12.48,0-7.19,4.05-12.75,16.74-12.75a72.51,72.51,0,0,1,13.86,1.44,1.15,1.15,0,0,1,1,1.17V50A1,1,0,0,1,51,51.14h-.13C49,51,41.46,50.42,37,50.42c-3.73,0-5.1,1.11-5.1,3.46,0,1.83.85,2.69,4.38,4.58L44.66,63c6.8,3.66,8.83,8,8.83,13.27C53.49,83.17,48.91,90.56,35.64,90.56Z" style="fill:#009fe3"/><path d="M80.49,90a28.85,28.85,0,0,1-5.16.52c-7.19,0-11-1.9-11-11.18v-19l-5.23-.85a1.53,1.53,0,0,1-1.37-1.37V53.88a1.43,1.43,0,0,1,1.37-1.37h5.23V47.15a1.41,1.41,0,0,1,1.31-1.31l8-1.37h.19A1.12,1.12,0,0,1,75,45.58v6.93h5.36a1.31,1.31,0,0,1,1.31,1.31v5.3a1.31,1.31,0,0,1-1.31,1.3H75v19c0,2.62.2,3.08,2.16,3.08h3.2c.85,0,1.37.39,1.37,1.11v5.1A1.35,1.35,0,0,1,80.49,90Z" style="fill:#009fe3"/><path d="M115.27,90H108a1.31,1.31,0,0,1-1.31-1.31v-1a14.4,14.4,0,0,1-9.08,2.94c-5.69,0-11.18-2.75-11.18-11.24v-.59c0-7.65,4.9-11,16.08-11H106V65.33c0-3.73-1.83-4.52-4.9-4.52-4.19,0-8.83.27-10.86.46h-.32a1.06,1.06,0,0,1-1.18-1.17V54.8A1.47,1.47,0,0,1,90,53.36,52.62,52.62,0,0,1,101.28,52c9.42,0,15.3,3.79,15.3,13.34V88.66A1.31,1.31,0,0,1,115.27,90Zm-9.09-16h-3.72c-4.58,0-5.75,1.57-5.75,4.78v.59c0,2.74,1.37,3.26,4.11,3.26a12,12,0,0,0,5.36-1.44Z" style="fill:#009fe3"/><path d="M144,60.75h-.52A17.57,17.57,0,0,0,135,63V88.6A1.37,1.37,0,0,1,133.71,90H125.8a1.42,1.42,0,0,1-1.37-1.37V53.82a1.31,1.31,0,0,1,1.3-1.31h7.78a1.31,1.31,0,0,1,1.31,1.31v1.31A14,14,0,0,1,143.65,52,1.31,1.31,0,0,1,145,53.3v6.21C145,60.1,144.56,60.75,144,60.75Z" style="fill:#009fe3"/><path d="M170.65,90a28.86,28.86,0,0,1-5.17.52c-7.19,0-11-1.9-11-11.18v-19l-5.23-.85a1.52,1.52,0,0,1-1.37-1.37V53.88a1.43,1.43,0,0,1,1.37-1.37h5.23V47.15a1.41,1.41,0,0,1,1.31-1.31l8-1.37h.2a1.12,1.12,0,0,1,1.18,1.11v6.93h5.36a1.31,1.31,0,0,1,1.3,1.31v5.3a1.3,1.3,0,0,1-1.3,1.3h-5.36v19c0,2.62.19,3.08,2.15,3.08h3.21c.85,0,1.37.39,1.37,1.11v5.1A1.35,1.35,0,0,1,170.65,90Z" style="fill:#009fe3"/><path d="M250.2,91H239.38a1.81,1.81,0,0,1-1.77-1l-8.84-14.36-8,14c-.48.81-.95,1.36-1.7,1.36H209a.9.9,0,0,1-1-.89,1.21,1.21,0,0,1,.14-.47L222.37,65,208,41.71a1,1,0,0,1-.14-.41,1,1,0,0,1,1-.89h11c.74,0,1.29.68,1.7,1.3L230,55.45l7.62-13.74a2.2,2.2,0,0,1,1.7-1.3h10.07a1,1,0,0,1,1,.89,1,1,0,0,1-.14.41l-14,24L250.88,89.6a1.56,1.56,0,0,1,.2.68C251.08,90.68,250.74,91,250.2,91Z" style="fill:#fff"/><path d="M274,91.57a50.94,50.94,0,0,1-14.08-1.91c-.68-.2-1.3-.61-1.3-1.29V82.93a1.19,1.19,0,0,1,1.23-1.23H260c4.76.41,9.86.62,13.53.62,4.83,0,6.74-2,6.74-5.78V75.31c0-3.06-1.09-5.85-5.51-5.85h-12a1.31,1.31,0,0,1-1.3-1.36V62.32a1.25,1.25,0,0,1,1.3-1.29h11.7c4.42,0,5.78-2.93,5.78-5.92v-1c0-3.06-1.43-5.1-6.74-5.1a132.32,132.32,0,0,0-13.4.82H260a1.19,1.19,0,0,1-1.23-1.23V43.2c0-.68.68-1.09,1.36-1.29A48.8,48.8,0,0,1,274,39.8c11.09,0,17.75,3.74,17.75,14v1a12.64,12.64,0,0,1-6.05,10.41,11.33,11.33,0,0,1,6.05,10.2v1.23C291.76,86.94,284.55,91.57,274,91.57Z" style="fill:#fff"/><path d="M319.25,91.57c-10.95,0-18.23-6.46-18.23-20V61.16c0-15.37,7.35-21.36,18.91-21.36a58,58,0,0,1,13.4,1.36c1.09.27,1.5.68,1.5,1.5v5.92c0,1-.48,1.42-1.23,1.42h-.34a86.09,86.09,0,0,0-12.38-1c-6,0-8.5,2.38-8.5,9.93v.48a48,48,0,0,1,8-.82c9.18,0,16.8,3.88,16.8,15.17v.48C337.21,84.63,331,91.57,319.25,91.57Zm6.6-17.76c0-5.57-3.27-7.07-7.28-7.07a44.41,44.41,0,0,0-6.19.68v4.15c0,9.25,2.92,11.16,6.87,11.16,3.74,0,6.6-1.77,6.6-8.44Z" style="fill:#fff"/><path d="M362.18,91.57a58,58,0,0,1-13.4-1.36c-1.09-.27-1.5-.68-1.5-1.5V82.79c0-1,.48-1.43,1.22-1.43h.34a84.87,84.87,0,0,0,12.39,1c6,0,8.5-2.38,8.5-9.94v-.47a48.12,48.12,0,0,1-8,.81c-9.18,0-16.8-3.87-16.8-15.16v-.48c0-10.34,6.26-17.28,18-17.28,10.95,0,18.23,6.46,18.23,20V70.21C381.09,85.58,373.74,91.57,362.18,91.57Zm7.55-31.77c0-9.25-2.93-11.16-6.87-11.16-3.74,0-6.6,1.77-6.6,8.44v.48c0,5.57,3.26,7.07,7.28,7.07a44.57,44.57,0,0,0,6.19-.68Z" style="fill:#fff"/></svg>