<svg id="Capa_1" data-name="Capa 1" xmlns="http://www.w3.org/2000/svg" viewBox="0 0 169.77 151.63"><title>djangoEcommerce</title><path d="M98.53,79.78,77.4,100.91a7.27,7.27,0,0,0,0,10.3h0a7.27,7.27,0,0,0,10.3,0L109.91,89a1.28,1.28,0,0,0-.17-2c-3-2.12-6.22-4.58-9.47-7.33A1.29,1.29,0,0,0,98.53,79.78Z" style="fill:#a4add8"/><path d="M90.23,70.45q-2.15-2.13-4.14-4.28a1.28,1.28,0,0,0-1.85,0L56.7,93.68a7.27,7.27,0,0,0,0,10.3h0A7.29,7.29,0,0,0,67,104L94.54,76.44a1.3,1.3,0,0,0,0-1.86Q92.37,72.59,90.23,70.45Z" style="fill:#a4add8"/><path d="M114.79,91.45,81.21,125a7.43,7.43,0,0,0-.39,10.2,7.29,7.29,0,0,0,10.55.25L128.83,98a1.29,1.29,0,0,0-.78-2.19c-3.05-.33-7.08-1.92-11.71-4.57A1.29,1.29,0,0,0,114.79,91.45Z" style="fill:#a4add8"/><path d="M62.66,31.84,25.34,69.16A7.43,7.43,0,0,0,25,79.36a7.29,7.29,0,0,0,10.55.25L69.22,45.89a1.3,1.3,0,0,0,.21-1.56c-2.65-4.62-4.25-8.65-4.58-11.71A1.29,1.29,0,0,0,62.66,31.84Z" style="fill:#a4add8"/><path d="M71.67,50.77,49.61,72.83A7.42,7.42,0,0,0,49.22,83a7.29,7.29,0,0,0,10.55.26L80.89,62.15A1.28,1.28,0,0,0,81,60.4c-2.75-3.25-5.2-6.43-7.32-9.46A1.29,1.29,0,0,0,71.67,50.77Z" style="fill:#a4add8"/><path d="M145.5,76l-4.43-21.19h0a35.34,35.34,0,0,0-35.23-35.23h0l-21.2-4.43c-6.25-2.82-14.53.1-16.81,2.39-5.74,5.73,6.46,27.24,27.25,48s42.29,33,48,27.25C145.4,90.56,148.32,82.28,145.5,76Z" style="fill:#37bee8"/></svg>